<svg width="430" height="453" viewBox="0 0 430 453" fill="none" xmlns="http://www.w3.org/2000/svg">
<path opacity="0.4" d="M224.669 43.3719C243.81 38.4283 264.291 43.9162 278.396 57.7678L368.695 146.449C382.799 160.299 388.381 180.404 383.347 199.188L351.105 319.519C346.072 338.303 331.185 352.924 312.046 357.867L189.504 389.517C170.363 394.461 149.882 388.973 135.777 375.121L45.4775 286.44C31.374 272.59 25.7923 252.485 30.8255 233.701L63.068 113.37C68.1013 94.5855 82.9876 79.965 102.127 75.0218L224.669 43.3719Z" stroke="#4C6A84"/>
<path opacity="0.8" d="M273.912 90.3925C291.758 90.554 308.336 100.125 317.399 115.5L375.477 214.025C384.539 229.398 384.709 248.234 375.931 263.437L319.645 360.928C310.867 376.131 294.47 385.402 276.625 385.241L162.261 384.206C144.415 384.045 127.837 374.474 118.774 359.099L60.6958 260.574C51.6335 245.201 51.464 226.365 60.2418 211.161L116.528 113.671C125.306 98.4675 141.702 89.1965 159.547 89.358L273.912 90.3925Z" stroke="#354D62"/>
<path d="M202.706 96.8414C217.793 88.3121 236.38 88.3121 251.467 96.8414L347.206 150.968C362.293 159.497 371.586 175.26 371.586 192.318V300.571C371.586 317.629 362.293 333.392 347.206 341.921L251.467 396.047C236.38 404.577 217.793 404.577 202.706 396.047L106.967 341.921C91.8802 333.392 82.5864 317.629 82.5864 300.571L82.5864 192.318C82.5864 175.26 91.8802 159.497 106.967 150.968L202.706 96.8414Z" fill="#102537"/>
</svg>
