<svg width="70" height="70" viewBox="0 0 70 70" fill="none" xmlns="http://www.w3.org/2000/svg">
<path d="M64.8048 43.9701V30.4052C65.3836 30.2152 65.9163 29.9065 66.3689 29.4987C66.8215 29.0909 67.1838 28.5931 67.4329 28.0371C67.6819 27.4811 67.812 26.8793 67.815 26.2701C67.8179 25.661 67.6936 25.0579 67.4499 24.4996C67.2062 23.9412 66.8487 23.4399 66.4 23.0278C65.9514 22.6157 65.4217 22.3018 64.8447 22.1063C64.2678 21.9108 63.6563 21.8379 63.0496 21.8924C62.4429 21.9469 61.8542 22.1275 61.3213 22.4227L51.9815 13.0013C52.2676 12.4667 52.4395 11.8784 52.4861 11.2738C52.5328 10.6692 52.4532 10.0616 52.2525 9.48938C52.0518 8.91719 51.7343 8.39299 51.3202 7.95005C50.9061 7.50711 50.4044 7.15511 49.847 6.91641C49.2895 6.6777 48.6886 6.5575 48.0822 6.56344C47.4759 6.56937 46.8774 6.70132 46.3248 6.95089C45.7722 7.20046 45.2774 7.56221 44.8721 8.01317C44.4667 8.46413 44.1595 8.99445 43.9701 9.57046H27.1238C26.9367 8.99842 26.6336 8.47116 26.2333 8.02165C25.8331 7.57215 25.3444 7.21008 24.7979 6.95809C24.2513 6.70611 23.6586 6.56963 23.0569 6.55721C22.4551 6.54478 21.8573 6.65667 21.3008 6.88588C20.7443 7.11508 20.2411 7.45667 19.8226 7.88927C19.4042 8.32187 19.0795 8.83617 18.869 9.4C18.6584 9.96382 18.5664 10.565 18.5989 11.166C18.6313 11.767 18.7874 12.3548 19.0574 12.8927L9.6114 22.3379C9.06817 22.0659 8.47423 21.91 7.86742 21.8802C7.26062 21.8504 6.65426 21.9473 6.08698 22.1648C5.51971 22.3823 5.00397 22.7156 4.57262 23.1434C4.14127 23.5713 3.80378 24.0843 3.58165 24.6497C3.35952 25.2152 3.25763 25.8208 3.28247 26.4278C3.3073 27.0348 3.45832 27.63 3.7259 28.1755C3.99348 28.7209 4.37175 29.2046 4.83661 29.5958C5.30147 29.9869 5.84271 30.277 6.42586 30.4474V36.2716C5.82782 36.4465 5.27404 36.7471 4.8016 37.1534C4.32916 37.5596 3.94895 38.0621 3.68645 38.6272C3.42394 39.1923 3.28519 39.8069 3.27947 40.43C3.27376 41.0531 3.40122 41.6702 3.65332 42.24C3.90542 42.8098 4.27634 43.3191 4.74126 43.734C5.20617 44.1488 5.75434 44.4596 6.34907 44.6454C6.94381 44.8312 7.57138 44.8878 8.18976 44.8114C8.80815 44.7351 9.40309 44.5275 9.93474 44.2025L11.5577 45.883C11.2366 46.4206 11.0346 47.0209 10.9655 47.6434C10.8964 48.2658 10.9618 48.8958 11.1571 49.4908C11.3525 50.0858 11.6734 50.6319 12.098 51.0922C12.5227 51.5525 13.0412 51.9163 13.6186 52.1589C14.1959 52.4015 14.8187 52.5173 15.4446 52.4984C16.0706 52.4796 16.6852 52.3266 17.247 52.0497C17.8087 51.7729 18.3044 51.3786 18.7007 50.8936C19.0969 50.4086 19.3843 49.8442 19.5436 49.2386L31.8791 49.2955C32.0406 49.877 32.3207 50.4189 32.7018 50.887C33.0828 51.3551 33.5567 51.7393 34.0934 52.0154C34.6302 52.2915 35.2183 52.4535 35.8207 52.4913C36.4231 52.5291 37.0268 52.4418 37.5939 52.2349L40.3935 56.2606C39.9752 56.7616 39.6743 57.3499 39.5129 57.9823C39.3515 58.6147 39.3337 59.2752 39.4608 59.9154C39.5879 60.5556 39.8567 61.1593 40.2474 61.6821C40.6382 62.2049 41.141 62.6336 41.7189 62.9368C42.2969 63.24 42.9354 63.41 43.5877 63.4343C44.2399 63.4587 44.8893 63.3367 45.4883 63.0774C46.0873 62.8181 46.6206 62.428 47.0492 61.9358C47.4778 61.4436 47.7908 60.8616 47.9652 60.2327H55.942C56.131 60.9155 56.4832 61.5423 56.968 62.0589C57.4529 62.5756 58.0561 62.9667 58.7256 63.1987C59.3951 63.4307 60.1109 63.4965 60.8115 63.3906C61.5121 63.2847 62.1765 63.0102 62.7475 62.5907C63.3185 62.1712 63.7791 61.6193 64.0896 60.9824C64.4001 60.3455 64.5513 59.6427 64.53 58.9345C64.5088 58.2262 64.3159 57.5337 63.9678 56.9166C63.6197 56.2994 63.1269 55.776 62.5318 55.3915L63.4769 52.4989C64.5136 52.4896 65.5133 52.1124 66.2977 51.4346C67.0821 50.7567 67.6002 49.8223 67.7597 48.7979C67.9192 47.7736 67.7096 46.7258 67.1684 45.8416C66.6272 44.9574 65.7895 44.2941 64.8048 43.9701ZM43.7501 54.6876C43.2094 54.6875 42.6735 54.788 42.1697 54.9842L39.3944 50.9927C39.8159 50.509 40.1257 49.9384 40.3018 49.3214L59.2385 49.3488C59.2471 49.3784 59.2553 49.4084 59.2645 49.4378L46.9851 56.1205C46.5758 55.669 46.0765 55.3083 45.5193 55.0615C44.9621 54.8147 44.3595 54.6874 43.7501 54.6876ZM33.4119 44.6722L24.7873 37.8499C24.8589 37.6873 24.9204 37.5206 24.9716 37.3505H32.997C33.1952 38.006 33.5439 38.6062 34.0152 39.1031C34.4865 39.6 35.0675 39.9798 35.7117 40.2123L35.4091 43.8048C34.6807 43.9201 33.9935 44.2186 33.4119 44.6722ZM15.3126 43.7501C14.5398 43.7495 13.7809 43.9549 13.1139 44.3451L11.4578 42.6303C11.8342 41.9722 12.0319 41.227 12.0313 40.4689C12.0311 40.3051 12.0217 40.1414 12.0032 39.9786L17.1342 38.5067C17.4139 38.9279 17.7639 39.2978 18.1689 39.6005L16.1169 43.8251C15.8517 43.7754 15.5824 43.7503 15.3126 43.7501ZM10.4675 29.5989L16.753 34.3872C16.5236 34.9269 16.4057 35.5075 16.4063 36.0939C16.4063 36.209 16.4122 36.3228 16.421 36.4357L11.2153 37.9291C10.5896 37.053 9.66346 36.4378 8.61336 36.2007V30.5184C9.29622 30.3651 9.93217 30.0497 10.4675 29.5989ZM22.9688 15.3126C23.2402 15.3124 23.5109 15.2869 23.7775 15.2365L25.7852 19.4932C24.8811 20.1828 24.2807 21.1972 24.1112 22.3217L11.5468 24.2519C11.4627 24.0885 11.3685 23.9305 11.2646 23.779L20.4983 14.5455C21.225 15.0459 22.0866 15.3134 22.9688 15.3126ZM32.7245 23.8439H38.3694C38.583 24.8829 39.1663 25.8091 40.0111 26.4506L37.8165 31.7647C37.1079 31.6612 36.3848 31.7338 35.711 31.9761L31.7704 25.799C32.2484 25.2383 32.5767 24.5657 32.7245 23.8439ZM48.1251 15.3126C48.967 15.3133 49.791 15.0695 50.497 14.6109L59.7325 23.9274C59.6106 24.1205 59.5042 24.3228 59.4141 24.5325L46.9903 22.3791C46.8365 21.2549 46.2519 20.2344 45.3598 19.5332L47.2825 15.2306C47.56 15.2852 47.8422 15.3127 48.1251 15.3126ZM59.1709 47.1611L40.3543 47.1338C40.312 46.9513 40.2581 46.7718 40.1927 46.5964L49.804 39.5351C50.4534 40.046 51.2347 40.3619 52.0567 40.4461C52.8787 40.5302 53.7078 40.379 54.4472 40.0102L59.7989 45.6998C59.5016 46.1442 59.2887 46.6396 59.1709 47.1611ZM41.4618 35.1628C41.239 34.1461 40.6615 33.242 39.8328 32.6122L42.0274 27.2981C42.2357 27.3284 42.4459 27.3437 42.6563 27.3439C43.2606 27.3442 43.8584 27.2184 44.4114 26.9748L49.0385 33.4227C48.6416 33.9349 48.364 34.5293 48.2258 35.1624L41.4618 35.1628ZM37.1876 38.2814C36.7549 38.2814 36.332 38.1531 35.9723 37.9127C35.6125 37.6724 35.3322 37.3307 35.1666 36.931C35.001 36.5313 34.9577 36.0915 35.0421 35.6671C35.1265 35.2428 35.3349 34.853 35.6408 34.5471C35.9467 34.2412 36.3365 34.0328 36.7608 33.9484C37.1851 33.864 37.625 33.9073 38.0247 34.0729C38.4244 34.2385 38.7661 34.5188 39.0064 34.8786C39.2468 35.2383 39.3751 35.6612 39.3751 36.0939C39.3744 36.6738 39.1437 37.2298 38.7336 37.6399C38.3235 38.05 37.7675 38.2807 37.1876 38.2814ZM32.9133 35.1628H25.0556C24.8901 34.4048 24.5256 33.7045 23.9997 33.1341L27.3065 27.1949C28.1901 27.4319 29.1257 27.3853 29.9814 27.0617L33.9024 33.2091C33.412 33.7657 33.0716 34.4381 32.9133 35.1628ZM18.0854 32.6521L11.7397 27.818C11.9152 27.362 12.0126 26.8796 12.0278 26.3911L24.3396 24.5001C24.5694 25.1115 24.9329 25.6637 25.4034 26.1167L22.1595 31.9426C21.4747 31.7143 20.744 31.6597 20.0329 31.7835C19.3217 31.9074 18.6525 32.2058 18.0852 32.6521H18.0854ZM54.6876 36.0939C54.6876 36.5265 54.5593 36.9495 54.3189 37.3092C54.0786 37.6689 53.7369 37.9493 53.3372 38.1149C52.9375 38.2804 52.4976 38.3238 52.0733 38.2394C51.649 38.155 51.2592 37.9466 50.9533 37.6407C50.6474 37.3348 50.439 36.945 50.3546 36.5207C50.2702 36.0963 50.3135 35.6565 50.4791 35.2568C50.6447 34.8571 50.925 34.5154 51.2848 34.2751C51.6445 34.0347 52.0674 33.9064 52.5001 33.9064C53.08 33.9071 53.636 34.1378 54.0461 34.5479C54.4562 34.9579 54.6869 35.5139 54.6876 36.0939ZM55.0255 32.5255C54.4139 32.091 53.7005 31.8215 52.9543 31.7433C52.2081 31.665 51.4543 31.7806 50.7658 32.0789L46.1323 25.6212C46.3814 25.2957 46.5835 24.9367 46.7326 24.5548L59.0851 26.6957C59.1489 27.3216 59.3478 27.9262 59.6682 28.4676L55.0255 32.5255ZM44.8438 22.9689C44.8438 23.4015 44.7155 23.8245 44.4752 24.1842C44.2348 24.5439 43.8932 24.8243 43.4934 24.9899C43.0937 25.1554 42.6539 25.1988 42.2296 25.1144C41.8052 25.03 41.4155 24.8216 41.1095 24.5157C40.8036 24.2098 40.5953 23.82 40.5109 23.3957C40.4265 22.9713 40.4698 22.5315 40.6353 22.1318C40.8009 21.7321 41.0813 21.3904 41.441 21.1501C41.8007 20.9097 42.2237 20.7814 42.6563 20.7814C43.2363 20.7821 43.7923 21.0128 44.2024 21.4229C44.6124 21.8329 44.8431 22.3889 44.8438 22.9689ZM28.4376 25.1564C28.0049 25.1564 27.582 25.0281 27.2223 24.7877C26.8625 24.5474 26.5822 24.2057 26.4166 23.806C26.251 23.4063 26.2077 22.9665 26.2921 22.5421C26.3765 22.1178 26.5849 21.728 26.8908 21.4221C27.1967 21.1162 27.5865 20.9078 28.0108 20.8234C28.4351 20.739 28.875 20.7823 29.2747 20.9479C29.6744 21.1135 30.016 21.3939 30.2564 21.7536C30.4968 22.1133 30.6251 22.5362 30.6251 22.9689C30.6244 23.5488 30.3937 24.1048 29.9836 24.5149C29.5735 24.925 29.0175 25.1557 28.4376 25.1564ZM18.5938 36.0939C18.5938 35.6612 18.7221 35.2383 18.9625 34.8786C19.2029 34.5188 19.5445 34.2385 19.9442 34.0729C20.3439 33.9073 20.7838 33.864 21.2081 33.9484C21.6324 34.0328 22.0222 34.2412 22.3281 34.5471C22.634 34.853 22.8424 35.2428 22.9268 35.6671C23.0112 36.0915 22.9679 36.5313 22.8023 36.931C22.6367 37.3307 22.3564 37.6724 21.9966 37.9127C21.6369 38.1531 21.214 38.2814 20.7813 38.2814C20.2014 38.2807 19.6454 38.05 19.2353 37.6399C18.8252 37.2298 18.5945 36.6738 18.5938 36.0939ZM37.8904 40.4117C38.6997 40.2783 39.4555 39.9208 40.0719 39.3797C40.6883 38.8386 41.1407 38.1355 41.3779 37.3503H48.3095C48.3551 37.5029 48.409 37.6528 48.4711 37.7995L38.9376 44.8042C38.5386 44.4615 38.0811 44.1934 37.5871 44.0128L37.8904 40.4117ZM61.429 44.2399L56.1004 38.5749C56.5395 37.9398 56.8023 37.1996 56.862 36.4298C56.9217 35.66 56.7761 34.8881 56.4402 34.193L61.2179 30.0176C61.6503 30.2736 62.1237 30.4527 62.6173 30.5469V43.8283C62.2033 43.9073 61.803 44.0461 61.429 44.2404V44.2399ZM65.6251 26.2501C65.6251 26.6828 65.4968 27.1057 65.2564 27.4655C65.0161 27.8252 64.6744 28.1056 64.2747 28.2711C63.875 28.4367 63.4351 28.48 63.0108 28.3956C62.5865 28.3112 62.1967 28.1029 61.8908 27.7969C61.5849 27.491 61.3765 27.1012 61.2921 26.6769C61.2077 26.2526 61.251 25.8127 61.4166 25.413C61.5822 25.0133 61.8625 24.6717 62.2223 24.4313C62.582 24.1909 63.0049 24.0626 63.4376 24.0626C64.0175 24.0633 64.5735 24.294 64.9836 24.7041C65.3937 25.1142 65.6244 25.6702 65.6251 26.2501ZM48.1251 8.75014C48.5577 8.75014 48.9807 8.87844 49.3404 9.11881C49.7001 9.35917 49.9805 9.70081 50.1461 10.1005C50.3116 10.5002 50.3549 10.9401 50.2705 11.3644C50.1861 11.7887 49.9778 12.1785 49.6719 12.4844C49.3659 12.7904 48.9762 12.9987 48.5518 13.0831C48.1275 13.1675 47.6877 13.1242 47.288 12.9586C46.8882 12.7931 46.5466 12.5127 46.3062 12.153C46.0659 11.7932 45.9376 11.3703 45.9376 10.9376C45.9383 10.3577 46.1689 9.8017 46.579 9.39161C46.9891 8.98152 47.5451 8.75083 48.1251 8.75014ZM27.2656 11.758H43.8283C44.0176 12.7447 44.5407 13.6362 45.3098 14.2829L43.3581 18.6509C42.3198 18.4816 41.2553 18.6922 40.3598 19.2443C39.4643 19.7963 38.7979 20.6527 38.4827 21.6564H32.6112C32.2993 20.6637 31.6436 19.8147 30.762 19.2619C29.8804 18.7092 28.8306 18.4889 27.8011 18.6407L25.7573 14.3067C26.5409 13.6581 27.0742 12.757 27.2656 11.758ZM22.9688 8.75014C23.4015 8.75014 23.8244 8.87844 24.1841 9.11881C24.5439 9.35917 24.8242 9.70081 24.9898 10.1005C25.1554 10.5002 25.1987 10.9401 25.1143 11.3644C25.0299 11.7887 24.8215 12.1785 24.5156 12.4844C24.2097 12.7904 23.8199 12.9987 23.3956 13.0831C22.9713 13.1675 22.5314 13.1242 22.1317 12.9586C21.732 12.7931 21.3904 12.5127 21.15 12.153C20.9096 11.7932 20.7813 11.3703 20.7813 10.9376C20.782 10.3577 21.0127 9.8017 21.4228 9.39161C21.8329 8.98152 22.3889 8.75083 22.9688 8.75014ZM5.46882 26.2501C5.46882 25.8175 5.59712 25.3946 5.83748 25.0348C6.07785 24.6751 6.41949 24.3947 6.8192 24.2292C7.21892 24.0636 7.65875 24.0203 8.08308 24.1047C8.50742 24.1891 8.89719 24.3974 9.20312 24.7033C9.50905 25.0093 9.71739 25.399 9.80179 25.8234C9.8862 26.2477 9.84288 26.6876 9.67731 27.0873C9.51174 27.487 9.23137 27.8286 8.87163 28.069C8.5119 28.3093 8.08897 28.4376 7.65632 28.4376C7.07637 28.437 6.52037 28.2063 6.11029 27.7962C5.7002 27.3861 5.46951 26.8301 5.46882 26.2501ZM7.65632 42.6564C7.22368 42.6564 6.80075 42.5281 6.44101 42.2877C6.08128 42.0474 5.8009 41.7057 5.63534 41.306C5.46977 40.9063 5.42645 40.4665 5.51086 40.0421C5.59526 39.6178 5.8036 39.228 6.10953 38.9221C6.41546 38.6162 6.80523 38.4078 7.22956 38.3234C7.6539 38.239 8.09373 38.2823 8.49344 38.4479C8.89316 38.6135 9.2348 38.8938 9.47516 39.2536C9.71553 39.6133 9.84382 40.0362 9.84382 40.4689C9.84314 41.0488 9.61245 41.6048 9.20236 42.0149C8.79227 42.425 8.23627 42.6557 7.65632 42.6564ZM15.3126 50.3126C14.8799 50.3126 14.457 50.1843 14.0973 49.944C13.7375 49.7036 13.4572 49.362 13.2916 48.9623C13.126 48.5625 13.0827 48.1227 13.1671 47.6984C13.2515 47.274 13.4599 46.8843 13.7658 46.5783C14.0717 46.2724 14.4615 46.0641 14.8858 45.9797C15.3101 45.8953 15.75 45.9386 16.1497 46.1042C16.5494 46.2697 16.891 46.5501 17.1314 46.9098C17.3718 47.2696 17.5001 47.6925 17.5001 48.1251C17.4994 48.7051 17.2687 49.2611 16.8586 49.6712C16.4485 50.0813 15.8925 50.312 15.3126 50.3126ZM18.0978 44.7538L20.1986 40.429C20.3918 40.4552 20.5864 40.4685 20.7813 40.4689C21.7408 40.4697 22.6737 40.1533 23.4348 39.569L32.0729 46.4025C31.9752 46.6305 31.8971 46.8665 31.8395 47.1078L19.5537 47.0512C19.3243 46.1504 18.8145 45.3458 18.0978 44.7538ZM33.9063 48.1251C33.9063 47.6925 34.0346 47.2696 34.275 46.9098C34.5154 46.5501 34.857 46.2697 35.2567 46.1042C35.6564 45.9386 36.0963 45.8953 36.5206 45.9797C36.9449 46.0641 37.3347 46.2724 37.6406 46.5783C37.9465 46.8843 38.1549 47.274 38.2393 47.6984C38.3237 48.1227 38.2804 48.5625 38.1148 48.9623C37.9492 49.362 37.6689 49.7036 37.3091 49.944C36.9494 50.1843 36.5265 50.3126 36.0938 50.3126C35.5139 50.312 34.9579 50.0813 34.5478 49.6712C34.1377 49.2611 33.907 48.7051 33.9063 48.1251ZM43.7501 61.2501C43.3174 61.2501 42.8945 61.1218 42.5348 60.8815C42.175 60.6411 41.8947 60.2995 41.7291 59.8998C41.5635 59.5 41.5202 59.0602 41.6046 58.6359C41.689 58.2115 41.8974 57.8218 42.2033 57.5158C42.5092 57.2099 42.899 57.0016 43.3233 56.9172C43.7476 56.8328 44.1875 56.8761 44.5872 57.0417C44.9869 57.2072 45.3286 57.4876 45.5689 57.8473C45.8093 58.2071 45.9376 58.63 45.9376 59.0626C45.9369 59.6426 45.7062 60.1986 45.2961 60.6087C44.886 61.0188 44.33 61.2495 43.7501 61.2501ZM60.1563 61.2501C59.7237 61.2501 59.3007 61.1218 58.941 60.8815C58.5813 60.6411 58.3009 60.2995 58.1353 59.8998C57.9698 59.5 57.9265 59.0602 58.0109 58.6359C58.0953 58.2115 58.3036 57.8218 58.6095 57.5158C58.9155 57.2099 59.3052 57.0016 59.7296 56.9172C60.1539 56.8328 60.5937 56.8761 60.9934 57.0417C61.3932 57.2072 61.7348 57.4876 61.9752 57.8473C62.2155 58.2071 62.3438 58.63 62.3438 59.0626C62.3431 59.6426 62.1124 60.1986 61.7024 60.6087C61.2923 61.0188 60.7363 61.2495 60.1563 61.2501ZM60.1563 54.6876C59.1733 54.689 58.2194 55.0209 57.4478 55.6299C56.6762 56.2389 56.1317 57.0897 55.902 58.0455H48.024L60.427 51.2951C60.7038 51.5587 61.0138 51.7851 61.3491 51.9686L60.4571 54.6991C60.3574 54.6923 60.2575 54.6876 60.1563 54.6876ZM63.4376 50.3126C63.0049 50.3126 62.582 50.1843 62.2223 49.944C61.8625 49.7036 61.5822 49.362 61.4166 48.9623C61.251 48.5625 61.2077 48.1227 61.2921 47.6984C61.3765 47.274 61.5849 46.8843 61.8908 46.5783C62.1967 46.2724 62.5865 46.0641 63.0108 45.9797C63.4351 45.8953 63.875 45.9386 64.2747 46.1042C64.6744 46.2697 65.0161 46.5501 65.2564 46.9098C65.4968 47.2696 65.6251 47.6925 65.6251 48.1251C65.6244 48.7051 65.3937 49.2611 64.9836 49.6712C64.5735 50.0813 64.0175 50.312 63.4376 50.3126Z" fill="black"/>
</svg>
