<svg width="152" height="159" viewBox="0 0 152 159" fill="none" xmlns="http://www.w3.org/2000/svg">
<path opacity="0.12" d="M83.6322 16.5663C90.6425 14.9149 98.0499 17.0826 103.064 22.2528L134.883 55.0626C139.897 60.2328 141.756 67.6202 139.76 74.4418L127.092 117.731C125.096 124.553 119.547 129.773 112.537 131.424L68.0497 141.904C61.0394 143.555 53.632 141.388 48.6179 136.218L16.7988 103.408C11.7847 98.2375 9.92565 90.8502 11.9219 84.0285L24.59 40.7389C26.5863 33.9172 32.1346 28.6976 39.145 27.0462L83.6322 16.5663Z" fill="#70D9FF"/>
<path d="M78.5638 20.2143C83.7842 17.2619 90.2159 17.2619 95.4362 20.2143L128.564 38.9503C133.784 41.9028 137 47.3591 137 53.264V90.736C137 96.6409 133.784 102.097 128.564 105.05L95.4362 123.786C90.2159 126.738 83.7842 126.738 78.5638 123.786L45.4362 105.05C40.2158 102.097 37 96.6409 37 90.736L37 53.264C37 47.3591 40.2158 41.9028 45.4362 38.9503L78.5638 20.2143Z" fill="#70D9FF"/>
<path fill-rule="evenodd" clip-rule="evenodd" d="M70 51C69.7348 51 69.4804 51.1054 69.2929 51.2929C69.1054 51.4804 69 51.7348 69 52V80C69 80.2652 69.1054 80.5196 69.2929 80.7071C69.4804 80.8946 69.7348 81 70 81H74C74.5523 81 75 81.4477 75 82C75 82.5523 74.5523 83 74 83H70C69.2044 83 68.4413 82.6839 67.8787 82.1213C67.3161 81.5587 67 80.7956 67 80V52C67 51.2044 67.3161 50.4413 67.8787 49.8787C68.4413 49.3161 69.2044 49 70 49H92C92.7956 49 93.5587 49.3161 94.1213 49.8787C94.6839 50.4413 95 51.2043 95 52V56C95 56.5523 94.5523 57 94 57C93.4477 57 93 56.5523 93 56V52C93 51.7348 92.8946 51.4804 92.7071 51.2929C92.5196 51.1054 92.2652 51 92 51H70Z" fill="black"/>
<path fill-rule="evenodd" clip-rule="evenodd" d="M76 57C75.7348 57 75.4804 57.1054 75.2929 57.2929C75.1054 57.4804 75 57.7348 75 58V86C75 86.2652 75.1054 86.5196 75.2929 86.7071C75.4804 86.8946 75.7348 87 76 87H80C80.5523 87 81 87.4477 81 88C81 88.5523 80.5523 89 80 89H76C75.2044 89 74.4413 88.6839 73.8787 88.1213C73.3161 87.5587 73 86.7956 73 86V58C73 57.2043 73.3161 56.4413 73.8787 55.8787C74.4413 55.3161 75.2043 55 76 55H98C98.7956 55 99.5587 55.3161 100.121 55.8787C100.684 56.4413 101 57.2044 101 58V62C101 62.5523 100.552 63 100 63C99.4477 63 99 62.5523 99 62V58C99 57.7348 98.8946 57.4804 98.7071 57.2929C98.5196 57.1054 98.2652 57 98 57H76Z" fill="black"/>
<path fill-rule="evenodd" clip-rule="evenodd" d="M79 62C79 61.4477 79.4477 61 80 61H106C106.552 61 107 61.4477 107 62V94C107 94.5523 106.552 95 106 95H80C79.4477 95 79 94.5523 79 94V62ZM81 63V93H105V63H81Z" fill="black"/>
<path fill-rule="evenodd" clip-rule="evenodd" d="M90.7073 67.2929C91.0978 67.6834 91.0979 68.3166 90.7073 68.7071L86.9924 72.4221C86.9921 72.4223 86.9919 72.4225 86.9917 72.4228C86.7713 72.6436 86.5015 72.8089 86.2046 72.9049C85.9074 73.0011 85.5916 73.0252 85.2833 72.9751C84.975 72.925 84.683 72.8023 84.4316 72.617C84.1803 72.432 83.9767 72.1898 83.8375 71.9106C83.8373 71.9103 83.8372 71.91 83.8371 71.9097L83.1058 70.4472C82.8588 69.9532 83.059 69.3526 83.553 69.1056C84.047 68.8586 84.6477 69.0588 84.8946 69.5528L85.6075 70.9785L89.2931 67.2929C89.6836 66.9024 90.3168 66.9024 90.7073 67.2929ZM85.6274 71.0183L85.6273 71.0182L85.6274 71.0183Z" fill="black"/>
<path fill-rule="evenodd" clip-rule="evenodd" d="M93 70C93 69.4477 93.4477 69 94 69H102C102.552 69 103 69.4477 103 70C103 70.5523 102.552 71 102 71H94C93.4477 71 93 70.5523 93 70Z" fill="black"/>
<path fill-rule="evenodd" clip-rule="evenodd" d="M90.7073 77.2929C91.0979 77.6834 91.0978 78.3166 90.7073 78.7071L86.9924 82.4221C86.9922 82.4222 86.9921 82.4224 86.9919 82.4225C86.7715 82.6435 86.5016 82.8088 86.2046 82.9049C85.9074 83.0011 85.5916 83.0251 85.2833 82.9751C84.975 82.925 84.683 82.8023 84.4316 82.617C84.1803 82.432 83.9767 82.1898 83.8375 81.9106C83.8373 81.9103 83.8372 81.91 83.8371 81.9097L83.1058 80.4472C82.8588 79.9532 83.059 79.3526 83.553 79.1056C84.047 78.8586 84.6477 79.0588 84.8946 79.5528L85.6075 80.9785L89.2931 77.2929C89.6836 76.9024 90.3168 76.9024 90.7073 77.2929ZM85.6274 81.0183L85.6273 81.0182L85.6274 81.0183Z" fill="black"/>
<path fill-rule="evenodd" clip-rule="evenodd" d="M93 80C93 79.4477 93.4477 79 94 79H102C102.552 79 103 79.4477 103 80C103 80.5523 102.552 81 102 81H94C93.4477 81 93 80.5523 93 80Z" fill="black"/>
<path fill-rule="evenodd" clip-rule="evenodd" d="M93 86C93 85.4477 93.4477 85 94 85H98C98.5523 85 99 85.4477 99 86C99 86.5523 98.5523 87 98 87H94C93.4477 87 93 86.5523 93 86Z" fill="black"/>
</svg>
