<svg width="169" height="173" viewBox="0 0 169 173" fill="none" xmlns="http://www.w3.org/2000/svg">
<path opacity="0.12" d="M106.862 27.2466C114.064 27.3011 120.748 31.1601 124.396 37.37L147.547 76.7777C151.195 82.9876 151.253 90.6051 147.699 96.7606L125.147 135.823C121.593 141.978 114.967 145.737 107.765 145.682L62.0614 145.337C54.8593 145.282 48.1753 141.423 44.5271 135.213L21.3761 95.8056C17.7279 89.5957 17.6698 81.9782 21.2237 75.8227L43.7763 36.7606C47.3302 30.6051 53.9561 26.8467 61.1581 26.9011L106.862 27.2466Z" fill="#70D9FF"/>
<path d="M65.5638 27.2143C70.7842 24.2619 77.2159 24.2619 82.4362 27.2143L115.564 45.9503C120.784 48.9028 124 54.3591 124 60.264V97.736C124 103.641 120.784 109.097 115.564 112.05L82.4362 130.786C77.2159 133.738 70.7842 133.738 65.5638 130.786L32.4362 112.05C27.2158 109.097 24 103.641 24 97.736V60.264C24 54.3591 27.2158 48.9028 32.4362 45.9503L65.5638 27.2143Z" fill="#70D9FF"/>
<g clip-path="url(#clip0)">
<path fill-rule="evenodd" clip-rule="evenodd" d="M68.8719 65.5858C69.247 65.2107 69.7557 65 70.2861 65H74.2861C74.8166 65 75.3253 65.2107 75.7003 65.5858C76.0754 65.9609 76.2861 66.4696 76.2861 67V71H80.2861C80.8166 71 81.3253 71.2107 81.7003 71.5858C82.0754 71.9609 82.2861 72.4696 82.2861 73V77C82.2861 77.5305 82.0754 78.0392 81.7003 78.4142C81.3253 78.7893 80.8166 79 80.2861 79H76.2861V83C76.2861 83.5305 76.0754 84.0392 75.7003 84.4142C75.3253 84.7893 74.8166 85 74.2861 85H70.2861C69.7557 85 69.247 84.7893 68.8719 84.4142C68.4968 84.0392 68.2861 83.5305 68.2861 83V79H64.2861C63.7557 79 63.247 78.7893 62.8719 78.4142C62.4968 78.0392 62.2861 77.5305 62.2861 77V73C62.2861 72.4696 62.4968 71.9609 62.8719 71.5858C63.247 71.2107 63.7557 71 64.2861 71H68.2861V67C68.2861 66.4696 68.4968 65.9609 68.8719 65.5858ZM74.2861 67L70.2861 67L70.2861 72C70.2861 72.5523 69.8384 73 69.2861 73L64.2861 73V77L69.2861 77C69.8384 77 70.2861 77.4477 70.2861 78V83H74.2861V78C74.2861 77.4477 74.7338 77 75.2861 77L80.2861 77V73H75.2861C74.7338 73 74.2861 72.5523 74.2861 72V67Z" fill="black"/>
<path d="M52.286 75.134C52.1159 64.2762 61.1963 54.8035 72.3037 55.0002C77.1383 55.0858 81.8876 56.3072 85.4567 58.8844C89.0493 61.4785 91.3933 65.415 91.41 70.7477C91.414 70.762 91.4203 70.7826 91.4297 70.8103C91.4632 70.9095 91.5186 71.0494 91.5995 71.234C91.7608 71.6022 91.9933 72.0813 92.2756 72.6507C92.3747 72.8507 92.4795 73.0608 92.5884 73.2791C93.0909 74.2866 93.6805 75.4689 94.207 76.6411C94.8406 78.0518 95.4248 79.5374 95.6486 80.7533C95.7587 81.3518 95.8048 81.9996 95.6426 82.5748C95.4601 83.2224 95.0078 83.7684 94.2552 83.9669C93.3074 84.2169 92.1644 84.4738 91.2664 84.6667C90.8456 84.7571 90.5864 84.681 90.6278 85.1304C90.6971 85.884 90.771 86.9128 90.787 88.0044C90.8029 89.0896 90.7622 90.2697 90.5916 91.3147C90.4298 92.3058 90.1196 93.3943 89.4317 94.0826C88.8884 94.6267 88.0304 94.962 87.2502 95.1893C86.4235 95.4303 85.4859 95.6032 84.6215 95.7274C83.7524 95.8522 82.932 95.9314 82.3306 95.9794L82.286 95.9829V102C82.286 102.552 81.8383 103 81.286 103C80.7338 103 80.286 102.552 80.286 102V95.046C80.286 94.0223 81.4294 94.0449 82.1716 93.9857C82.7457 93.9399 83.522 93.8648 84.3371 93.7477C85.1569 93.6299 85.9913 93.473 86.6906 93.2692C87.4365 93.0518 87.8587 92.8274 88.0164 92.6694C88.2281 92.4578 88.4654 91.9255 88.6178 90.9924C88.7614 90.1128 88.8023 89.0645 88.7872 88.0337C88.7722 87.0092 88.7026 86.0346 88.6362 85.3137C88.5384 84.2515 88.4089 83.2157 89.7426 82.9428C90.0175 82.8866 90.4033 82.8065 90.8464 82.7113C91.7261 82.5223 92.8185 82.2766 93.7151 82.041L93.7177 82.0322C93.7565 81.8946 93.7718 81.6054 93.6816 81.1154C93.5047 80.1542 93.0097 78.8568 92.3826 77.4605C91.8744 76.3291 91.3071 75.1914 90.805 74.1845L90.8049 74.1844L90.8043 74.1831C90.6938 73.9616 90.5865 73.7464 90.4837 73.539C90.2024 72.9716 89.9501 72.4534 89.7675 72.0364C89.6764 71.8284 89.5951 71.6287 89.5349 71.4505C89.4852 71.3035 89.41 71.0611 89.41 70.812C89.4119 66.1156 87.394 62.7502 84.2859 60.5059C81.1399 58.2341 76.8252 57.0805 72.2683 56.9999C62.4045 56.8252 54.2077 65.3738 54.286 75.126C54.286 80.3543 56.1553 84.0067 58.1482 87.9004L58.1762 87.9551C60.1792 91.8688 62.286 96.016 62.286 102C62.286 102.552 61.8383 103 61.286 103C60.7338 103 60.286 102.552 60.286 102C60.286 96.5383 58.3929 92.7683 56.3959 88.8663L56.3184 88.7151C54.3458 84.8618 52.288 80.842 52.286 75.134Z" fill="black"/>
</g>
<defs>
<clipPath id="clip0">
<rect width="48" height="48" fill="white" transform="translate(50 55)"/>
</clipPath>
</defs>
</svg>
