<svg width="185" height="203" viewBox="0 0 185 203" fill="none" xmlns="http://www.w3.org/2000/svg">
<path d="M31.7695 178.789H26.2852V194H24.0469V178.789H18.5742V176.938H31.7695V178.789ZM43.3828 187.801C43.3828 189.73 42.9414 191.285 42.0586 192.465C41.1758 193.645 39.9805 194.234 38.4727 194.234C36.9336 194.234 35.7227 193.746 34.8398 192.77V198.875H32.6719V181.32H34.6523L34.7578 182.727C35.6406 181.633 36.8672 181.086 38.4375 181.086C39.9609 181.086 41.1641 181.66 42.0469 182.809C42.9375 183.957 43.3828 185.555 43.3828 187.602V187.801ZM41.2148 187.555C41.2148 186.125 40.9102 184.996 40.3008 184.168C39.6914 183.34 38.8555 182.926 37.793 182.926C36.4805 182.926 35.4961 183.508 34.8398 184.672V190.73C35.4883 191.887 36.4805 192.465 37.8164 192.465C38.8555 192.465 39.6797 192.055 40.2891 191.234C40.9062 190.406 41.2148 189.18 41.2148 187.555ZM51.4102 194.234C49.6914 194.234 48.293 193.672 47.2148 192.547C46.1367 191.414 45.5977 189.902 45.5977 188.012V187.613C45.5977 186.355 45.8359 185.234 46.3125 184.25C46.7969 183.258 47.4688 182.484 48.3281 181.93C49.1953 181.367 50.1328 181.086 51.1406 181.086C52.7891 181.086 54.0703 181.629 54.9844 182.715C55.8984 183.801 56.3555 185.355 56.3555 187.379V188.281H47.7656C47.7969 189.531 48.1602 190.543 48.8555 191.316C49.5586 192.082 50.4492 192.465 51.5273 192.465C52.293 192.465 52.9414 192.309 53.4727 191.996C54.0039 191.684 54.4688 191.27 54.8672 190.754L56.1914 191.785C55.1289 193.418 53.5352 194.234 51.4102 194.234ZM51.1406 182.867C50.2656 182.867 49.5312 183.188 48.9375 183.828C48.3438 184.461 47.9766 185.352 47.8359 186.5H54.1875V186.336C54.125 185.234 53.8281 184.383 53.2969 183.781C52.7656 183.172 52.0469 182.867 51.1406 182.867ZM69.2344 194H67.0664V188.586H61.2422V194H59.0625V181.32H61.2422V186.816H67.0664V181.32H69.2344V194ZM72.6211 192.23L73.3711 191.305C74.2148 190.211 74.6953 188.57 74.8125 186.383L75.0117 181.32H83.1797V192.23H84.8086V197.727H82.6406V194H73.793V197.727H71.625L71.6367 192.23H72.6211ZM75.1875 192.23H81.0117V183.324H77.1094L76.9805 186.348C76.8477 188.871 76.25 190.832 75.1875 192.23ZM89.5781 185.691H92.8711C94.3086 185.707 95.4453 186.082 96.2812 186.816C97.1172 187.551 97.5352 188.547 97.5352 189.805C97.5352 191.07 97.1055 192.086 96.2461 192.852C95.3867 193.617 94.2305 194 92.7773 194H87.4102V181.32H89.5781V185.691ZM102.059 194H99.8789V181.32H102.059V194ZM89.5781 187.461V192.23H92.8008C93.6133 192.23 94.2422 192.023 94.6875 191.609C95.1328 191.188 95.3555 190.613 95.3555 189.887C95.3555 189.184 95.1367 188.609 94.6992 188.164C94.2695 187.711 93.6641 187.477 92.8828 187.461H89.5781ZM116.883 192.465C117.656 192.465 118.332 192.23 118.91 191.762C119.488 191.293 119.809 190.707 119.871 190.004H121.922C121.883 190.73 121.633 191.422 121.172 192.078C120.711 192.734 120.094 193.258 119.32 193.648C118.555 194.039 117.742 194.234 116.883 194.234C115.156 194.234 113.781 193.66 112.758 192.512C111.742 191.355 111.234 189.777 111.234 187.777V187.414C111.234 186.18 111.461 185.082 111.914 184.121C112.367 183.16 113.016 182.414 113.859 181.883C114.711 181.352 115.715 181.086 116.871 181.086C118.293 181.086 119.473 181.512 120.41 182.363C121.355 183.215 121.859 184.32 121.922 185.68H119.871C119.809 184.859 119.496 184.188 118.934 183.664C118.379 183.133 117.691 182.867 116.871 182.867C115.77 182.867 114.914 183.266 114.305 184.062C113.703 184.852 113.402 185.996 113.402 187.496V187.906C113.402 189.367 113.703 190.492 114.305 191.281C114.906 192.07 115.766 192.465 116.883 192.465ZM123.891 187.895C123.891 185.777 124.301 184.113 125.121 182.902C125.941 181.691 127.066 181.086 128.496 181.086C129.16 181.086 129.742 181.199 130.242 181.426V176H132.41V181.496C132.957 181.223 133.598 181.086 134.332 181.086C135.77 181.086 136.898 181.691 137.719 182.902C138.539 184.113 138.949 185.859 138.949 188.141C138.949 190.008 138.539 191.492 137.719 192.594C136.906 193.695 135.785 194.246 134.355 194.246C133.598 194.246 132.949 194.121 132.41 193.871V198.875H130.242V193.906C129.727 194.133 129.137 194.246 128.473 194.246C127.051 194.246 125.93 193.695 125.109 192.594C124.297 191.492 123.891 189.984 123.891 188.07V187.895ZM136.781 187.895C136.781 186.301 136.508 185.066 135.961 184.191C135.414 183.309 134.66 182.867 133.699 182.867C133.207 182.867 132.777 182.945 132.41 183.102V192.277C132.762 192.41 133.199 192.477 133.723 192.477C134.691 192.477 135.441 192.102 135.973 191.352C136.512 190.602 136.781 189.449 136.781 187.895ZM126.059 188.141C126.059 189.562 126.312 190.641 126.82 191.375C127.328 192.109 128.059 192.477 129.012 192.477C129.465 192.477 129.875 192.406 130.242 192.266V183.066C129.914 182.934 129.512 182.867 129.035 182.867C128.082 182.867 127.348 183.293 126.832 184.145C126.316 184.996 126.059 186.328 126.059 188.141ZM147.035 194.234C145.316 194.234 143.918 193.672 142.84 192.547C141.762 191.414 141.223 189.902 141.223 188.012V187.613C141.223 186.355 141.461 185.234 141.938 184.25C142.422 183.258 143.094 182.484 143.953 181.93C144.82 181.367 145.758 181.086 146.766 181.086C148.414 181.086 149.695 181.629 150.609 182.715C151.523 183.801 151.98 185.355 151.98 187.379V188.281H143.391C143.422 189.531 143.785 190.543 144.48 191.316C145.184 192.082 146.074 192.465 147.152 192.465C147.918 192.465 148.566 192.309 149.098 191.996C149.629 191.684 150.094 191.27 150.492 190.754L151.816 191.785C150.754 193.418 149.16 194.234 147.035 194.234ZM146.766 182.867C145.891 182.867 145.156 183.188 144.562 183.828C143.969 184.461 143.602 185.352 143.461 186.5H149.812V186.336C149.75 185.234 149.453 184.383 148.922 183.781C148.391 183.172 147.672 182.867 146.766 182.867ZM165.211 187.801C165.211 189.73 164.77 191.285 163.887 192.465C163.004 193.645 161.809 194.234 160.301 194.234C158.762 194.234 157.551 193.746 156.668 192.77V198.875H154.5V181.32H156.48L156.586 182.727C157.469 181.633 158.695 181.086 160.266 181.086C161.789 181.086 162.992 181.66 163.875 182.809C164.766 183.957 165.211 185.555 165.211 187.602V187.801ZM163.043 187.555C163.043 186.125 162.738 184.996 162.129 184.168C161.52 183.34 160.684 182.926 159.621 182.926C158.309 182.926 157.324 183.508 156.668 184.672V190.73C157.316 191.887 158.309 192.465 159.645 192.465C160.684 192.465 161.508 192.055 162.117 191.234C162.734 190.406 163.043 189.18 163.043 187.555ZM170.344 185.691H173.637C175.074 185.707 176.211 186.082 177.047 186.816C177.883 187.551 178.301 188.547 178.301 189.805C178.301 191.07 177.871 192.086 177.012 192.852C176.152 193.617 174.996 194 173.543 194H168.176V181.32H170.344V185.691ZM182.824 194H180.645V181.32H182.824V194ZM170.344 187.461V192.23H173.566C174.379 192.23 175.008 192.023 175.453 191.609C175.898 191.188 176.121 190.613 176.121 189.887C176.121 189.184 175.902 188.609 175.465 188.164C175.035 187.711 174.43 187.477 173.648 187.461H170.344Z" fill="white"/>
<path opacity="0.12" d="M106.862 27.2466C114.064 27.3011 120.748 31.1601 124.396 37.37L147.547 76.7777C151.195 82.9876 151.253 90.6051 147.699 96.7606L125.147 135.823C121.593 141.978 114.967 145.737 107.765 145.682L62.0614 145.337C54.8593 145.282 48.1753 141.423 44.5271 135.213L21.3761 95.8056C17.7279 89.5957 17.6698 81.9782 21.2237 75.8227L43.7763 36.7606C47.3302 30.6051 53.9561 26.8467 61.1581 26.9011L106.862 27.2466Z" fill="#70D9FF"/>
<path d="M65.5638 27.2143C70.7842 24.2619 77.2159 24.2619 82.4362 27.2143L115.564 45.9503C120.784 48.9028 124 54.3591 124 60.264V97.736C124 103.641 120.784 109.097 115.564 112.05L82.4362 130.786C77.2159 133.738 70.7842 133.738 65.5638 130.786L32.4362 112.05C27.2158 109.097 24 103.641 24 97.736V60.264C24 54.3591 27.2158 48.9028 32.4362 45.9503L65.5638 27.2143Z" fill="#70D9FF"/>
<g clip-path="url(#clip0)">
<path fill-rule="evenodd" clip-rule="evenodd" d="M68.8719 65.5858C69.247 65.2107 69.7557 65 70.2861 65H74.2861C74.8166 65 75.3253 65.2107 75.7003 65.5858C76.0754 65.9609 76.2861 66.4696 76.2861 67V71H80.2861C80.8166 71 81.3253 71.2107 81.7003 71.5858C82.0754 71.9609 82.2861 72.4696 82.2861 73V77C82.2861 77.5305 82.0754 78.0392 81.7003 78.4142C81.3253 78.7893 80.8166 79 80.2861 79H76.2861V83C76.2861 83.5305 76.0754 84.0392 75.7003 84.4142C75.3253 84.7893 74.8166 85 74.2861 85H70.2861C69.7557 85 69.247 84.7893 68.8719 84.4142C68.4968 84.0392 68.2861 83.5305 68.2861 83V79H64.2861C63.7557 79 63.247 78.7893 62.8719 78.4142C62.4968 78.0392 62.2861 77.5305 62.2861 77V73C62.2861 72.4696 62.4968 71.9609 62.8719 71.5858C63.247 71.2107 63.7557 71 64.2861 71H68.2861V67C68.2861 66.4696 68.4968 65.9609 68.8719 65.5858ZM74.2861 67L70.2861 67L70.2861 72C70.2861 72.5523 69.8384 73 69.2861 73L64.2861 73V77L69.2861 77C69.8384 77 70.2861 77.4477 70.2861 78V83H74.2861V78C74.2861 77.4477 74.7338 77 75.2861 77L80.2861 77V73H75.2861C74.7338 73 74.2861 72.5523 74.2861 72V67Z" fill="black"/>
<path d="M52.286 75.134C52.1159 64.2762 61.1963 54.8035 72.3037 55.0002C77.1383 55.0858 81.8876 56.3072 85.4567 58.8844C89.0493 61.4785 91.3933 65.415 91.41 70.7477C91.414 70.762 91.4203 70.7826 91.4297 70.8103C91.4632 70.9095 91.5186 71.0494 91.5995 71.234C91.7608 71.6022 91.9933 72.0813 92.2756 72.6507C92.3747 72.8507 92.4795 73.0608 92.5884 73.2791C93.0909 74.2866 93.6805 75.4689 94.207 76.6411C94.8406 78.0518 95.4248 79.5374 95.6486 80.7533C95.7587 81.3518 95.8048 81.9996 95.6426 82.5748C95.4601 83.2224 95.0078 83.7684 94.2552 83.9669C93.3074 84.2169 92.1644 84.4738 91.2664 84.6667C90.8456 84.7571 90.5864 84.681 90.6278 85.1304C90.6971 85.884 90.771 86.9128 90.787 88.0044C90.8029 89.0896 90.7622 90.2697 90.5916 91.3147C90.4298 92.3058 90.1196 93.3943 89.4317 94.0826C88.8884 94.6267 88.0304 94.962 87.2502 95.1893C86.4235 95.4303 85.4859 95.6032 84.6215 95.7274C83.7524 95.8522 82.932 95.9314 82.3306 95.9794L82.286 95.9829V102C82.286 102.552 81.8383 103 81.286 103C80.7338 103 80.286 102.552 80.286 102V95.046C80.286 94.0223 81.4294 94.0449 82.1716 93.9857C82.7457 93.9399 83.522 93.8648 84.3371 93.7477C85.1569 93.6299 85.9913 93.473 86.6906 93.2692C87.4365 93.0518 87.8587 92.8274 88.0164 92.6694C88.2281 92.4578 88.4654 91.9255 88.6178 90.9924C88.7614 90.1128 88.8023 89.0645 88.7872 88.0337C88.7722 87.0092 88.7026 86.0346 88.6362 85.3137C88.5384 84.2515 88.4089 83.2157 89.7426 82.9428C90.0175 82.8866 90.4033 82.8065 90.8464 82.7113C91.7261 82.5223 92.8185 82.2766 93.7151 82.041L93.7177 82.0322C93.7565 81.8946 93.7718 81.6054 93.6816 81.1154C93.5047 80.1542 93.0097 78.8568 92.3826 77.4605C91.8744 76.3291 91.3071 75.1914 90.805 74.1845L90.8049 74.1844L90.8043 74.1831C90.6938 73.9616 90.5865 73.7464 90.4837 73.539C90.2024 72.9716 89.9501 72.4534 89.7675 72.0364C89.6764 71.8284 89.5951 71.6287 89.5349 71.4505C89.4852 71.3035 89.41 71.0611 89.41 70.812C89.4119 66.1156 87.394 62.7502 84.2859 60.5059C81.1399 58.2341 76.8252 57.0805 72.2683 56.9999C62.4045 56.8252 54.2077 65.3738 54.286 75.126C54.286 80.3543 56.1553 84.0067 58.1482 87.9004L58.1762 87.9551C60.1792 91.8688 62.286 96.016 62.286 102C62.286 102.552 61.8383 103 61.286 103C60.7338 103 60.286 102.552 60.286 102C60.286 96.5383 58.3929 92.7683 56.3959 88.8663L56.3184 88.7151C54.3458 84.8618 52.288 80.842 52.286 75.134Z" fill="black"/>
</g>
<defs>
<clipPath id="clip0">
<rect width="48" height="48" fill="white" transform="translate(50 55)"/>
</clipPath>
</defs>
</svg>
