<svg width="148" height="156" viewBox="0 0 148 156" fill="none" xmlns="http://www.w3.org/2000/svg">
<path opacity="0.12" d="M49.0989 19.7809C54.3243 14.8243 61.8157 12.9676 68.7511 14.9101L112.762 27.2367C119.698 29.1792 125.023 34.6258 126.733 41.5248L137.584 85.3052C139.294 92.2042 137.129 99.5075 131.903 104.464L98.7431 135.918C93.5177 140.874 86.0263 142.731 79.0909 140.789L35.0797 128.462C28.1443 126.52 22.8186 121.073 21.1087 114.174L10.2576 70.3935C8.54767 63.4945 10.7133 56.1912 15.9387 51.2347L49.0989 19.7809Z" fill="#70D9FF"/>
<path d="M58.5638 20.2143C63.7842 17.2619 70.2159 17.2619 75.4362 20.2143L108.564 38.9503C113.784 41.9027 117 47.3591 117 53.264V90.7359C117 96.6409 113.784 102.097 108.564 105.05L75.4362 123.786C70.2159 126.738 63.7842 126.738 58.5638 123.786L25.4362 105.05C20.2158 102.097 17 96.6409 17 90.7359V53.264C17 47.3591 20.2158 41.9027 25.4362 38.9503L58.5638 20.2143Z" fill="#70D9FF"/>
<g clip-path="url(#clip0)">
<path fill-rule="evenodd" clip-rule="evenodd" d="M69 81C69 80.4477 69.4477 80 70 80H85C85.5523 80 86 80.4477 86 81C86 81.5523 85.5523 82 85 82H70C69.4477 82 69 81.5523 69 81Z" fill="black"/>
<path fill-rule="evenodd" clip-rule="evenodd" d="M69 85C69 84.4477 69.4477 84 70 84H80C80.5523 84 81 84.4477 81 85C81 85.5523 80.5523 86 80 86H70C69.4477 86 69 85.5523 69 85Z" fill="black"/>
<path fill-rule="evenodd" clip-rule="evenodd" d="M80.9614 64.9992C79.9048 64.9582 78.8511 65.1361 77.8666 65.5217C76.882 65.9073 75.9878 66.4923 75.2401 67.24C74.4925 67.9876 73.9075 68.8818 73.5219 69.8664C73.2535 70.5516 73.0858 71.2702 73.0224 72H88.978C88.9146 71.2702 88.7469 70.5516 88.4785 69.8664C88.0929 68.8818 87.5079 67.9876 86.7602 67.24C86.0125 66.4923 85.1184 65.9073 84.1338 65.5217C83.1492 65.1361 82.0956 64.9582 81.039 64.9992C81.0131 65.0003 80.9872 65.0003 80.9614 64.9992ZM81.0002 62.9993C79.6811 62.9534 78.3665 63.178 77.1372 63.6594C75.8959 64.1456 74.7686 64.8831 73.8259 65.8257C72.8833 66.7684 72.1457 67.8957 71.6596 69.137C71.1734 70.3783 70.9492 71.7067 71.0009 73.0388C71.0218 73.5756 71.463 74 72.0002 74H90.0002C90.5374 74 90.9786 73.5756 90.9994 73.0388C91.0512 71.7067 90.8269 70.3783 90.3408 69.137C89.8546 67.8957 89.1171 66.7684 88.1744 65.8257C87.2318 64.8831 86.1044 64.1456 84.8631 63.6594C83.6339 63.178 82.3193 62.9534 81.0002 62.9993Z" fill="black"/>
<path fill-rule="evenodd" clip-rule="evenodd" d="M76.0503 50.0503C77.363 48.7375 79.1435 48 81 48C82.8565 48 84.637 48.7375 85.9497 50.0503C87.2625 51.363 88 53.1435 88 55C88 56.8565 87.2625 58.637 85.9497 59.9497C84.637 61.2625 82.8565 62 81 62C79.1435 62 77.363 61.2625 76.0503 59.9497C74.7375 58.637 74 56.8565 74 55C74 53.1435 74.7375 51.363 76.0503 50.0503ZM81 50C79.6739 50 78.4021 50.5268 77.4645 51.4645C76.5268 52.4021 76 53.6739 76 55C76 56.3261 76.5268 57.5979 77.4645 58.5355C78.4021 59.4732 79.6739 60 81 60C82.3261 60 83.5979 59.4732 84.5355 58.5355C85.4732 57.5979 86 56.3261 86 55C86 53.6739 85.4732 52.4021 84.5355 51.4645C83.5979 50.5268 82.3261 50 81 50Z" fill="black"/>
<path fill-rule="evenodd" clip-rule="evenodd" d="M76.3141 49.8721C76.8111 49.6312 77.4093 49.8389 77.6501 50.3359C78.1825 51.4345 79.0136 52.3608 80.0482 53.0089C81.0828 53.6569 82.2791 54.0004 83.4999 54L83.5104 54L83.5104 54C84.5431 54.0106 85.5621 53.7637 86.4754 53.2816C86.9639 53.0238 87.5688 53.2108 87.8266 53.6992C88.0844 54.1876 87.8974 54.7926 87.409 55.0504C86.2034 55.6867 84.8584 56.013 83.4953 56C81.9006 55.9996 80.3381 55.5504 78.9866 54.7038C77.6335 53.8563 76.5466 52.6448 75.8503 51.2081C75.6095 50.7111 75.8171 50.113 76.3141 49.8721Z" fill="black"/>
<path fill-rule="evenodd" clip-rule="evenodd" d="M52.9614 86.9992C51.9048 86.9582 50.8511 87.1361 49.8666 87.5217C48.882 87.9073 47.9878 88.4923 47.2401 89.24C46.4925 89.9876 45.9075 90.8818 45.5219 91.8664C45.2535 92.5516 45.0858 93.2702 45.0224 94H60.978C60.9146 93.2702 60.7469 92.5516 60.4785 91.8664C60.0929 90.8818 59.5079 89.9876 58.7602 89.24C58.0126 88.4923 57.1184 87.9073 56.1338 87.5217C55.1492 87.1361 54.0956 86.9582 53.039 86.9992C53.0131 87.0003 52.9872 87.0003 52.9614 86.9992ZM53.0002 84.9993C51.6811 84.9534 50.3665 85.178 49.1372 85.6594C47.8959 86.1456 46.7686 86.8831 45.8259 87.8257C44.8833 88.7684 44.1457 89.8957 43.6596 91.137C43.1734 92.3783 42.9492 93.7067 43.0009 95.0388C43.0218 95.5756 43.463 96 44.0002 96H62.0002C62.5374 96 62.9786 95.5756 62.9994 95.0388C63.0512 93.7067 62.8269 92.3783 62.3408 91.137C61.8546 89.8957 61.1171 88.7684 60.1744 87.8257C59.2318 86.8831 58.1044 86.1456 56.8632 85.6594C55.6339 85.178 54.3193 84.9534 53.0002 84.9993Z" fill="black"/>
<path fill-rule="evenodd" clip-rule="evenodd" d="M48.0503 72.0503C49.363 70.7375 51.1435 70 53 70C54.8565 70 56.637 70.7375 57.9497 72.0503C59.2625 73.363 60 75.1435 60 77C60 78.8565 59.2625 80.637 57.9497 81.9497C56.637 83.2625 54.8565 84 53 84C51.1435 84 49.363 83.2625 48.0503 81.9497C46.7375 80.637 46 78.8565 46 77C46 75.1435 46.7375 73.363 48.0503 72.0503ZM53 72C51.6739 72 50.4021 72.5268 49.4645 73.4645C48.5268 74.4021 48 75.6739 48 77C48 78.3261 48.5268 79.5979 49.4645 80.5355C50.4021 81.4732 51.6739 82 53 82C54.3261 82 55.5979 81.4732 56.5355 80.5355C57.4732 79.5979 58 78.3261 58 77C58 75.6739 57.4732 74.4021 56.5355 73.4645C55.5979 72.5268 54.3261 72 53 72Z" fill="black"/>
<path fill-rule="evenodd" clip-rule="evenodd" d="M48.3558 71.8255C48.8543 71.5877 49.4511 71.799 49.6889 72.2975C50.2177 73.4059 51.0496 74.342 52.0883 74.9972C53.127 75.6525 54.3301 76.0002 55.5582 76L55.5693 76L55.5693 76.0001C56.5842 76.0112 57.5865 75.7745 58.4893 75.3106C58.9805 75.0581 59.5833 75.2517 59.8358 75.7429C60.0882 76.2341 59.8947 76.837 59.4035 77.0894C58.213 77.7013 56.8914 78.0138 55.553 78C53.949 77.9992 52.3779 77.5446 51.0212 76.6888C49.663 75.832 48.5752 74.608 47.8838 73.1586C47.646 72.6601 47.8573 72.0632 48.3558 71.8255Z" fill="black"/>
<path fill-rule="evenodd" clip-rule="evenodd" d="M65.8787 76.8787C66.4413 76.3161 67.2044 76 68 76H88C88.7957 76 89.5587 76.3161 90.1213 76.8787C90.6839 77.4413 91 78.2044 91 79V89C91 89.7956 90.6839 90.5587 90.1213 91.1213C89.5587 91.6839 88.7957 92 88 92H76.3508L71.6247 95.7809C71.3245 96.021 70.9133 96.0678 70.5668 95.9013C70.2203 95.7348 70 95.3844 70 95V92H68C67.2044 92 66.4413 91.6839 65.8787 91.1213C65.3161 90.5587 65 89.7957 65 89V79C65 78.2043 65.3161 77.4413 65.8787 76.8787ZM68 78C67.7348 78 67.4804 78.1054 67.2929 78.2929C67.1054 78.4804 67 78.7348 67 79V89C67 89.2652 67.1054 89.5196 67.2929 89.7071C67.4804 89.8946 67.7348 90 68 90H71C71.5523 90 72 90.4477 72 91V92.9194L75.3753 90.2191C75.5526 90.0773 75.7729 90 76 90H88C88.2652 90 88.5196 89.8946 88.7071 89.7071C88.8946 89.5196 89 89.2652 89 89V79C89 78.7348 88.8946 78.4804 88.7071 78.2929C88.5196 78.1054 88.2652 78 88 78H68Z" fill="black"/>
<path fill-rule="evenodd" clip-rule="evenodd" d="M47 53C47 52.4477 47.4477 52 48 52H63C63.5523 52 64 52.4477 64 53C64 53.5523 63.5523 54 63 54H48C47.4477 54 47 53.5523 47 53Z" fill="black"/>
<path fill-rule="evenodd" clip-rule="evenodd" d="M47 57C47 56.4477 47.4477 56 48 56H58C58.5523 56 59 56.4477 59 57C59 57.5523 58.5523 58 58 58H48C47.4477 58 47 57.5523 47 57Z" fill="black"/>
<path fill-rule="evenodd" clip-rule="evenodd" d="M45.9995 50C45.7343 50 45.4799 50.1054 45.2924 50.2929C45.1049 50.4804 44.9995 50.7348 44.9995 51V61C44.9995 61.2652 45.1049 61.5196 45.2924 61.7071C45.4799 61.8946 45.7343 62 45.9995 62H57.9995C58.2647 62 58.5191 62.1054 58.7066 62.2929L61.9995 65.5858V63C61.9995 62.4477 62.4472 62 62.9995 62H65.9995C66.2647 62 66.5191 61.8946 66.7066 61.7071C66.8942 61.5196 66.9995 61.2652 66.9995 61V51C66.9995 50.7348 66.8942 50.4804 66.7066 50.2929C66.5191 50.1054 66.2647 50 65.9995 50H45.9995ZM43.8782 48.8787C44.4408 48.3161 45.2039 48 45.9995 48H65.9995C66.7952 48 67.5582 48.3161 68.1208 48.8787C68.6834 49.4413 68.9995 50.2043 68.9995 51V61C68.9995 61.7957 68.6834 62.5587 68.1208 63.1213C67.5582 63.6839 66.7952 64 65.9995 64H63.9995V68C63.9995 68.4045 63.7559 68.7691 63.3822 68.9239C63.0085 69.0787 62.5784 68.9931 62.2924 68.7071L57.5853 64H45.9995C45.2039 64 44.4408 63.6839 43.8782 63.1213C43.3156 62.5587 42.9995 61.7956 42.9995 61V51C42.9995 50.2044 43.3156 49.4413 43.8782 48.8787Z" fill="black"/>
</g>
<defs>
<clipPath id="clip0">
<rect width="48" height="48" fill="white" transform="translate(43 48)"/>
</clipPath>
</defs>
</svg>
