<svg width="273" height="196" viewBox="0 0 273 196" fill="none" xmlns="http://www.w3.org/2000/svg">
<path opacity="0.12" d="M83.6322 16.5663C90.6425 14.9149 98.0499 17.0826 103.064 22.2528L134.883 55.0626C139.897 60.2328 141.756 67.6202 139.76 74.4418L127.092 117.731C125.096 124.553 119.547 129.773 112.537 131.424L68.0497 141.904C61.0394 143.555 53.632 141.388 48.6179 136.218L16.7988 103.408C11.7847 98.2375 9.92565 90.8502 11.9219 84.0285L24.59 40.7389C26.5863 33.9172 32.1346 28.6976 39.145 27.0462L83.6322 16.5663Z" fill="#70D9FF"/>
<path d="M78.5638 20.2143C83.7842 17.2619 90.2159 17.2619 95.4362 20.2143L128.564 38.9503C133.784 41.9028 137 47.3591 137 53.264V90.736C137 96.6409 133.784 102.097 128.564 105.05L95.4362 123.786C90.2159 126.738 83.7842 126.738 78.5638 123.786L45.4362 105.05C40.2158 102.097 37 96.6409 37 90.736L37 53.264C37 47.3591 40.2158 41.9028 45.4362 38.9503L78.5638 20.2143Z" fill="#70D9FF"/>
<path fill-rule="evenodd" clip-rule="evenodd" d="M70 51C69.7348 51 69.4804 51.1054 69.2929 51.2929C69.1054 51.4804 69 51.7348 69 52V80C69 80.2652 69.1054 80.5196 69.2929 80.7071C69.4804 80.8946 69.7348 81 70 81H74C74.5523 81 75 81.4477 75 82C75 82.5523 74.5523 83 74 83H70C69.2044 83 68.4413 82.6839 67.8787 82.1213C67.3161 81.5587 67 80.7956 67 80V52C67 51.2044 67.3161 50.4413 67.8787 49.8787C68.4413 49.3161 69.2044 49 70 49H92C92.7956 49 93.5587 49.3161 94.1213 49.8787C94.6839 50.4413 95 51.2043 95 52V56C95 56.5523 94.5523 57 94 57C93.4477 57 93 56.5523 93 56V52C93 51.7348 92.8946 51.4804 92.7071 51.2929C92.5196 51.1054 92.2652 51 92 51H70Z" fill="black"/>
<path fill-rule="evenodd" clip-rule="evenodd" d="M76 57C75.7348 57 75.4804 57.1054 75.2929 57.2929C75.1054 57.4804 75 57.7348 75 58V86C75 86.2652 75.1054 86.5196 75.2929 86.7071C75.4804 86.8946 75.7348 87 76 87H80C80.5523 87 81 87.4477 81 88C81 88.5523 80.5523 89 80 89H76C75.2044 89 74.4413 88.6839 73.8787 88.1213C73.3161 87.5587 73 86.7956 73 86V58C73 57.2043 73.3161 56.4413 73.8787 55.8787C74.4413 55.3161 75.2043 55 76 55H98C98.7956 55 99.5587 55.3161 100.121 55.8787C100.684 56.4413 101 57.2044 101 58V62C101 62.5523 100.552 63 100 63C99.4477 63 99 62.5523 99 62V58C99 57.7348 98.8946 57.4804 98.7071 57.2929C98.5196 57.1054 98.2652 57 98 57H76Z" fill="black"/>
<path fill-rule="evenodd" clip-rule="evenodd" d="M79 62C79 61.4477 79.4477 61 80 61H106C106.552 61 107 61.4477 107 62V94C107 94.5523 106.552 95 106 95H80C79.4477 95 79 94.5523 79 94V62ZM81 63V93H105V63H81Z" fill="black"/>
<path fill-rule="evenodd" clip-rule="evenodd" d="M90.7073 67.2929C91.0978 67.6834 91.0979 68.3166 90.7073 68.7071L86.9924 72.4221C86.9921 72.4223 86.9919 72.4225 86.9917 72.4228C86.7713 72.6436 86.5015 72.8089 86.2046 72.9049C85.9074 73.0011 85.5916 73.0252 85.2833 72.9751C84.975 72.925 84.683 72.8023 84.4316 72.617C84.1803 72.432 83.9767 72.1898 83.8375 71.9106C83.8373 71.9103 83.8372 71.91 83.8371 71.9097L83.1058 70.4472C82.8588 69.9532 83.059 69.3526 83.553 69.1056C84.047 68.8586 84.6477 69.0588 84.8946 69.5528L85.6075 70.9785L89.2931 67.2929C89.6836 66.9024 90.3168 66.9024 90.7073 67.2929ZM85.6274 71.0183L85.6273 71.0182L85.6274 71.0183Z" fill="black"/>
<path fill-rule="evenodd" clip-rule="evenodd" d="M93 70C93 69.4477 93.4477 69 94 69H102C102.552 69 103 69.4477 103 70C103 70.5523 102.552 71 102 71H94C93.4477 71 93 70.5523 93 70Z" fill="black"/>
<path fill-rule="evenodd" clip-rule="evenodd" d="M90.7073 77.2929C91.0979 77.6834 91.0978 78.3166 90.7073 78.7071L86.9924 82.4221C86.9922 82.4222 86.9921 82.4224 86.9919 82.4225C86.7715 82.6435 86.5016 82.8088 86.2046 82.9049C85.9074 83.0011 85.5916 83.0251 85.2833 82.9751C84.975 82.925 84.683 82.8023 84.4316 82.617C84.1803 82.432 83.9767 82.1898 83.8375 81.9106C83.8373 81.9103 83.8372 81.91 83.8371 81.9097L83.1058 80.4472C82.8588 79.9532 83.059 79.3526 83.553 79.1056C84.047 78.8586 84.6477 79.0588 84.8946 79.5528L85.6075 80.9785L89.2931 77.2929C89.6836 76.9024 90.3168 76.9024 90.7073 77.2929ZM85.6274 81.0183L85.6273 81.0182L85.6274 81.0183Z" fill="black"/>
<path fill-rule="evenodd" clip-rule="evenodd" d="M93 80C93 79.4477 93.4477 79 94 79H102C102.552 79 103 79.4477 103 80C103 80.5523 102.552 81 102 81H94C93.4477 81 93 80.5523 93 80Z" fill="black"/>
<path fill-rule="evenodd" clip-rule="evenodd" d="M93 86C93 85.4477 93.4477 85 94 85H98C98.5523 85 99 85.4477 99 86C99 86.5523 98.5523 87 98 87H94C93.4477 87 93 86.5523 93 86Z" fill="black"/>
<path d="M61.3945 179.336H59.3203V187H57.0703V169.938H59.3203V177.461H61.0781L67.043 169.938H69.8438L63.3281 178.211L70.3242 187H67.5703L61.3945 179.336ZM77.0039 187.234C75.2852 187.234 73.8867 186.672 72.8086 185.547C71.7305 184.414 71.1914 182.902 71.1914 181.012V180.613C71.1914 179.355 71.4297 178.234 71.9062 177.25C72.3906 176.258 73.0625 175.484 73.9219 174.93C74.7891 174.367 75.7266 174.086 76.7344 174.086C78.3828 174.086 79.6641 174.629 80.5781 175.715C81.4922 176.801 81.9492 178.355 81.9492 180.379V181.281H73.3594C73.3906 182.531 73.7539 183.543 74.4492 184.316C75.1523 185.082 76.043 185.465 77.1211 185.465C77.8867 185.465 78.5352 185.309 79.0664 184.996C79.5977 184.684 80.0625 184.27 80.4609 183.754L81.7852 184.785C80.7227 186.418 79.1289 187.234 77.0039 187.234ZM76.7344 175.867C75.8594 175.867 75.125 176.188 74.5312 176.828C73.9375 177.461 73.5703 178.352 73.4297 179.5H79.7812V179.336C79.7188 178.234 79.4219 177.383 78.8906 176.781C78.3594 176.172 77.6406 175.867 76.7344 175.867ZM92.6719 174.32H94.8398V187H92.6719V177.754L86.8242 187H84.6562V174.32H86.8242V183.578L92.6719 174.32ZM93.2578 169.703C93.2578 170.648 92.9336 171.41 92.2852 171.988C91.6445 172.559 90.8008 172.844 89.7539 172.844C88.707 172.844 87.8594 172.555 87.2109 171.977C86.5625 171.398 86.2383 170.641 86.2383 169.703H88.0078C88.0078 170.25 88.1562 170.68 88.4531 170.992C88.75 171.297 89.1836 171.449 89.7539 171.449C90.3008 171.449 90.7266 171.297 91.0312 170.992C91.3438 170.688 91.5 170.258 91.5 169.703H93.2578ZM103.406 185.465C104.18 185.465 104.855 185.23 105.434 184.762C106.012 184.293 106.332 183.707 106.395 183.004H108.445C108.406 183.73 108.156 184.422 107.695 185.078C107.234 185.734 106.617 186.258 105.844 186.648C105.078 187.039 104.266 187.234 103.406 187.234C101.68 187.234 100.305 186.66 99.2812 185.512C98.2656 184.355 97.7578 182.777 97.7578 180.777V180.414C97.7578 179.18 97.9844 178.082 98.4375 177.121C98.8906 176.16 99.5391 175.414 100.383 174.883C101.234 174.352 102.238 174.086 103.395 174.086C104.816 174.086 105.996 174.512 106.934 175.363C107.879 176.215 108.383 177.32 108.445 178.68H106.395C106.332 177.859 106.02 177.188 105.457 176.664C104.902 176.133 104.215 175.867 103.395 175.867C102.293 175.867 101.438 176.266 100.828 177.062C100.227 177.852 99.9258 178.996 99.9258 180.496V180.906C99.9258 182.367 100.227 183.492 100.828 184.281C101.43 185.07 102.289 185.465 103.406 185.465ZM113.25 178.691H116.543C117.98 178.707 119.117 179.082 119.953 179.816C120.789 180.551 121.207 181.547 121.207 182.805C121.207 184.07 120.777 185.086 119.918 185.852C119.059 186.617 117.902 187 116.449 187H111.082V174.32H113.25V178.691ZM125.73 187H123.551V174.32H125.73V187ZM113.25 180.461V185.23H116.473C117.285 185.23 117.914 185.023 118.359 184.609C118.805 184.188 119.027 183.613 119.027 182.887C119.027 182.184 118.809 181.609 118.371 181.164C117.941 180.711 117.336 180.477 116.555 180.461H113.25ZM145.84 187H143.672V176.113H137.836V187H135.656V174.32H145.84V187ZM160.031 180.801C160.031 182.73 159.59 184.285 158.707 185.465C157.824 186.645 156.629 187.234 155.121 187.234C153.582 187.234 152.371 186.746 151.488 185.77V191.875H149.32V174.32H151.301L151.406 175.727C152.289 174.633 153.516 174.086 155.086 174.086C156.609 174.086 157.812 174.66 158.695 175.809C159.586 176.957 160.031 178.555 160.031 180.602V180.801ZM157.863 180.555C157.863 179.125 157.559 177.996 156.949 177.168C156.34 176.34 155.504 175.926 154.441 175.926C153.129 175.926 152.145 176.508 151.488 177.672V183.73C152.137 184.887 153.129 185.465 154.465 185.465C155.504 185.465 156.328 185.055 156.938 184.234C157.555 183.406 157.863 182.18 157.863 180.555ZM171 174.32H173.168V187H171V177.754L165.152 187H162.984V174.32H165.152V183.578L171 174.32ZM183.949 184.129L188.262 174.32H190.969V187H188.801V177.777L184.699 187H183.199L179.016 177.578V187H176.848V174.32H179.66L183.949 184.129ZM199.723 187.234C198.004 187.234 196.605 186.672 195.527 185.547C194.449 184.414 193.91 182.902 193.91 181.012V180.613C193.91 179.355 194.148 178.234 194.625 177.25C195.109 176.258 195.781 175.484 196.641 174.93C197.508 174.367 198.445 174.086 199.453 174.086C201.102 174.086 202.383 174.629 203.297 175.715C204.211 176.801 204.668 178.355 204.668 180.379V181.281H196.078C196.109 182.531 196.473 183.543 197.168 184.316C197.871 185.082 198.762 185.465 199.84 185.465C200.605 185.465 201.254 185.309 201.785 184.996C202.316 184.684 202.781 184.27 203.18 183.754L204.504 184.785C203.441 186.418 201.848 187.234 199.723 187.234ZM199.453 175.867C198.578 175.867 197.844 176.188 197.25 176.828C196.656 177.461 196.289 178.352 196.148 179.5H202.5V179.336C202.438 178.234 202.141 177.383 201.609 176.781C201.078 176.172 200.359 175.867 199.453 175.867ZM217.547 187H215.379V181.586H209.555V187H207.375V174.32H209.555V179.816H215.379V174.32H217.547V187ZM226.301 187.234C224.582 187.234 223.184 186.672 222.105 185.547C221.027 184.414 220.488 182.902 220.488 181.012V180.613C220.488 179.355 220.727 178.234 221.203 177.25C221.688 176.258 222.359 175.484 223.219 174.93C224.086 174.367 225.023 174.086 226.031 174.086C227.68 174.086 228.961 174.629 229.875 175.715C230.789 176.801 231.246 178.355 231.246 180.379V181.281H222.656C222.688 182.531 223.051 183.543 223.746 184.316C224.449 185.082 225.34 185.465 226.418 185.465C227.184 185.465 227.832 185.309 228.363 184.996C228.895 184.684 229.359 184.27 229.758 183.754L231.082 184.785C230.02 186.418 228.426 187.234 226.301 187.234ZM226.031 175.867C225.156 175.867 224.422 176.188 223.828 176.828C223.234 177.461 222.867 178.352 222.727 179.5H229.078V179.336C229.016 178.234 228.719 177.383 228.188 176.781C227.656 176.172 226.938 175.867 226.031 175.867ZM244.125 187H241.957V181.586H236.133V187H233.953V174.32H236.133V179.816H241.957V174.32H244.125V187ZM255.82 174.32H257.988V187H255.82V177.754L249.973 187H247.805V174.32H249.973V183.578L255.82 174.32ZM271.16 174.32V187H268.98V182.066H265.711L262.723 187H260.379L263.566 181.738C262.754 181.441 262.129 180.984 261.691 180.367C261.262 179.742 261.047 179.016 261.047 178.188C261.047 177.031 261.48 176.102 262.348 175.398C263.215 174.688 264.375 174.328 265.828 174.32H271.16ZM263.227 178.211C263.227 178.828 263.438 179.328 263.859 179.711C264.281 180.086 264.84 180.277 265.535 180.285H268.98V176.078H265.863C265.059 176.078 264.418 176.277 263.941 176.676C263.465 177.066 263.227 177.578 263.227 178.211Z" fill="white"/>
</svg>
