<svg width="228" height="196" viewBox="0 0 228 196" fill="none" xmlns="http://www.w3.org/2000/svg">
<path opacity="0.12" d="M49.0989 19.7809C54.3243 14.8243 61.8157 12.9676 68.7511 14.9101L112.762 27.2367C119.698 29.1792 125.023 34.6258 126.733 41.5248L137.584 85.3052C139.294 92.2042 137.129 99.5075 131.903 104.464L98.7431 135.918C93.5177 140.874 86.0263 142.731 79.0909 140.789L35.0797 128.462C28.1443 126.52 22.8186 121.073 21.1087 114.174L10.2576 70.3935C8.54767 63.4945 10.7133 56.1912 15.9387 51.2347L49.0989 19.7809Z" fill="#70D9FF"/>
<path d="M58.5638 20.2143C63.7842 17.2619 70.2159 17.2619 75.4362 20.2143L108.564 38.9503C113.784 41.9027 117 47.3591 117 53.264V90.7359C117 96.6409 113.784 102.097 108.564 105.05L75.4362 123.786C70.2159 126.738 63.7842 126.738 58.5638 123.786L25.4362 105.05C20.2158 102.097 17 96.6409 17 90.7359V53.264C17 47.3591 20.2158 41.9027 25.4362 38.9503L58.5638 20.2143Z" fill="#70D9FF"/>
<g clip-path="url(#clip0)">
<path fill-rule="evenodd" clip-rule="evenodd" d="M69 81C69 80.4477 69.4477 80 70 80H85C85.5523 80 86 80.4477 86 81C86 81.5523 85.5523 82 85 82H70C69.4477 82 69 81.5523 69 81Z" fill="black"/>
<path fill-rule="evenodd" clip-rule="evenodd" d="M69 85C69 84.4477 69.4477 84 70 84H80C80.5523 84 81 84.4477 81 85C81 85.5523 80.5523 86 80 86H70C69.4477 86 69 85.5523 69 85Z" fill="black"/>
<path fill-rule="evenodd" clip-rule="evenodd" d="M80.9614 64.9992C79.9048 64.9582 78.8511 65.1361 77.8666 65.5217C76.882 65.9073 75.9878 66.4923 75.2401 67.24C74.4925 67.9876 73.9075 68.8818 73.5219 69.8664C73.2535 70.5516 73.0858 71.2702 73.0224 72H88.978C88.9146 71.2702 88.7469 70.5516 88.4785 69.8664C88.0929 68.8818 87.5079 67.9876 86.7602 67.24C86.0125 66.4923 85.1184 65.9073 84.1338 65.5217C83.1492 65.1361 82.0956 64.9582 81.039 64.9992C81.0131 65.0003 80.9872 65.0003 80.9614 64.9992ZM81.0002 62.9993C79.6811 62.9534 78.3665 63.178 77.1372 63.6594C75.8959 64.1456 74.7686 64.8831 73.8259 65.8257C72.8833 66.7684 72.1457 67.8957 71.6596 69.137C71.1734 70.3783 70.9492 71.7067 71.0009 73.0388C71.0218 73.5756 71.463 74 72.0002 74H90.0002C90.5374 74 90.9786 73.5756 90.9994 73.0388C91.0512 71.7067 90.8269 70.3783 90.3408 69.137C89.8546 67.8957 89.1171 66.7684 88.1744 65.8257C87.2318 64.8831 86.1044 64.1456 84.8631 63.6594C83.6339 63.178 82.3193 62.9534 81.0002 62.9993Z" fill="black"/>
<path fill-rule="evenodd" clip-rule="evenodd" d="M76.0503 50.0503C77.363 48.7375 79.1435 48 81 48C82.8565 48 84.637 48.7375 85.9497 50.0503C87.2625 51.363 88 53.1435 88 55C88 56.8565 87.2625 58.637 85.9497 59.9497C84.637 61.2625 82.8565 62 81 62C79.1435 62 77.363 61.2625 76.0503 59.9497C74.7375 58.637 74 56.8565 74 55C74 53.1435 74.7375 51.363 76.0503 50.0503ZM81 50C79.6739 50 78.4021 50.5268 77.4645 51.4645C76.5268 52.4021 76 53.6739 76 55C76 56.3261 76.5268 57.5979 77.4645 58.5355C78.4021 59.4732 79.6739 60 81 60C82.3261 60 83.5979 59.4732 84.5355 58.5355C85.4732 57.5979 86 56.3261 86 55C86 53.6739 85.4732 52.4021 84.5355 51.4645C83.5979 50.5268 82.3261 50 81 50Z" fill="black"/>
<path fill-rule="evenodd" clip-rule="evenodd" d="M76.3141 49.8721C76.8111 49.6312 77.4093 49.8389 77.6501 50.3359C78.1825 51.4345 79.0136 52.3608 80.0482 53.0089C81.0828 53.6569 82.2791 54.0004 83.4999 54L83.5104 54L83.5104 54C84.5431 54.0106 85.5621 53.7637 86.4754 53.2816C86.9639 53.0238 87.5688 53.2108 87.8266 53.6992C88.0844 54.1876 87.8974 54.7926 87.409 55.0504C86.2034 55.6867 84.8584 56.013 83.4953 56C81.9006 55.9996 80.3381 55.5504 78.9866 54.7038C77.6335 53.8563 76.5466 52.6448 75.8503 51.2081C75.6095 50.7111 75.8171 50.113 76.3141 49.8721Z" fill="black"/>
<path fill-rule="evenodd" clip-rule="evenodd" d="M52.9614 86.9992C51.9048 86.9582 50.8511 87.1361 49.8666 87.5217C48.882 87.9073 47.9878 88.4923 47.2401 89.24C46.4925 89.9876 45.9075 90.8818 45.5219 91.8664C45.2535 92.5516 45.0858 93.2702 45.0224 94H60.978C60.9146 93.2702 60.7469 92.5516 60.4785 91.8664C60.0929 90.8818 59.5079 89.9876 58.7602 89.24C58.0126 88.4923 57.1184 87.9073 56.1338 87.5217C55.1492 87.1361 54.0956 86.9582 53.039 86.9992C53.0131 87.0003 52.9872 87.0003 52.9614 86.9992ZM53.0002 84.9993C51.6811 84.9534 50.3665 85.178 49.1372 85.6594C47.8959 86.1456 46.7686 86.8831 45.8259 87.8257C44.8833 88.7684 44.1457 89.8957 43.6596 91.137C43.1734 92.3783 42.9492 93.7067 43.0009 95.0388C43.0218 95.5756 43.463 96 44.0002 96H62.0002C62.5374 96 62.9786 95.5756 62.9994 95.0388C63.0512 93.7067 62.8269 92.3783 62.3408 91.137C61.8546 89.8957 61.1171 88.7684 60.1744 87.8257C59.2318 86.8831 58.1044 86.1456 56.8632 85.6594C55.6339 85.178 54.3193 84.9534 53.0002 84.9993Z" fill="black"/>
<path fill-rule="evenodd" clip-rule="evenodd" d="M48.0503 72.0503C49.363 70.7375 51.1435 70 53 70C54.8565 70 56.637 70.7375 57.9497 72.0503C59.2625 73.363 60 75.1435 60 77C60 78.8565 59.2625 80.637 57.9497 81.9497C56.637 83.2625 54.8565 84 53 84C51.1435 84 49.363 83.2625 48.0503 81.9497C46.7375 80.637 46 78.8565 46 77C46 75.1435 46.7375 73.363 48.0503 72.0503ZM53 72C51.6739 72 50.4021 72.5268 49.4645 73.4645C48.5268 74.4021 48 75.6739 48 77C48 78.3261 48.5268 79.5979 49.4645 80.5355C50.4021 81.4732 51.6739 82 53 82C54.3261 82 55.5979 81.4732 56.5355 80.5355C57.4732 79.5979 58 78.3261 58 77C58 75.6739 57.4732 74.4021 56.5355 73.4645C55.5979 72.5268 54.3261 72 53 72Z" fill="black"/>
<path fill-rule="evenodd" clip-rule="evenodd" d="M48.3558 71.8255C48.8543 71.5877 49.4511 71.799 49.6889 72.2975C50.2177 73.4059 51.0496 74.342 52.0883 74.9972C53.127 75.6525 54.3301 76.0002 55.5582 76L55.5693 76L55.5693 76.0001C56.5842 76.0112 57.5865 75.7745 58.4893 75.3106C58.9805 75.0581 59.5833 75.2517 59.8358 75.7429C60.0882 76.2341 59.8947 76.837 59.4035 77.0894C58.213 77.7013 56.8914 78.0138 55.553 78C53.949 77.9992 52.3779 77.5446 51.0212 76.6888C49.663 75.832 48.5752 74.608 47.8838 73.1586C47.646 72.6601 47.8573 72.0632 48.3558 71.8255Z" fill="black"/>
<path fill-rule="evenodd" clip-rule="evenodd" d="M65.8787 76.8787C66.4413 76.3161 67.2044 76 68 76H88C88.7957 76 89.5587 76.3161 90.1213 76.8787C90.6839 77.4413 91 78.2044 91 79V89C91 89.7956 90.6839 90.5587 90.1213 91.1213C89.5587 91.6839 88.7957 92 88 92H76.3508L71.6247 95.7809C71.3245 96.021 70.9133 96.0678 70.5668 95.9013C70.2203 95.7348 70 95.3844 70 95V92H68C67.2044 92 66.4413 91.6839 65.8787 91.1213C65.3161 90.5587 65 89.7957 65 89V79C65 78.2043 65.3161 77.4413 65.8787 76.8787ZM68 78C67.7348 78 67.4804 78.1054 67.2929 78.2929C67.1054 78.4804 67 78.7348 67 79V89C67 89.2652 67.1054 89.5196 67.2929 89.7071C67.4804 89.8946 67.7348 90 68 90H71C71.5523 90 72 90.4477 72 91V92.9194L75.3753 90.2191C75.5526 90.0773 75.7729 90 76 90H88C88.2652 90 88.5196 89.8946 88.7071 89.7071C88.8946 89.5196 89 89.2652 89 89V79C89 78.7348 88.8946 78.4804 88.7071 78.2929C88.5196 78.1054 88.2652 78 88 78H68Z" fill="black"/>
<path fill-rule="evenodd" clip-rule="evenodd" d="M47 53C47 52.4477 47.4477 52 48 52H63C63.5523 52 64 52.4477 64 53C64 53.5523 63.5523 54 63 54H48C47.4477 54 47 53.5523 47 53Z" fill="black"/>
<path fill-rule="evenodd" clip-rule="evenodd" d="M47 57C47 56.4477 47.4477 56 48 56H58C58.5523 56 59 56.4477 59 57C59 57.5523 58.5523 58 58 58H48C47.4477 58 47 57.5523 47 57Z" fill="black"/>
<path fill-rule="evenodd" clip-rule="evenodd" d="M45.9995 50C45.7343 50 45.4799 50.1054 45.2924 50.2929C45.1049 50.4804 44.9995 50.7348 44.9995 51V61C44.9995 61.2652 45.1049 61.5196 45.2924 61.7071C45.4799 61.8946 45.7343 62 45.9995 62H57.9995C58.2647 62 58.5191 62.1054 58.7066 62.2929L61.9995 65.5858V63C61.9995 62.4477 62.4472 62 62.9995 62H65.9995C66.2647 62 66.5191 61.8946 66.7066 61.7071C66.8942 61.5196 66.9995 61.2652 66.9995 61V51C66.9995 50.7348 66.8942 50.4804 66.7066 50.2929C66.5191 50.1054 66.2647 50 65.9995 50H45.9995ZM43.8782 48.8787C44.4408 48.3161 45.2039 48 45.9995 48H65.9995C66.7952 48 67.5582 48.3161 68.1208 48.8787C68.6834 49.4413 68.9995 50.2043 68.9995 51V61C68.9995 61.7957 68.6834 62.5587 68.1208 63.1213C67.5582 63.6839 66.7952 64 65.9995 64H63.9995V68C63.9995 68.4045 63.7559 68.7691 63.3822 68.9239C63.0085 69.0787 62.5784 68.9931 62.2924 68.7071L57.5853 64H45.9995C45.2039 64 44.4408 63.6839 43.8782 63.1213C43.3156 62.5587 42.9995 61.7956 42.9995 61V51C42.9995 50.2044 43.3156 49.4413 43.8782 48.8787Z" fill="black"/>
</g>
<path d="M23.2227 181.586C23.4414 182.992 23.8828 183.98 24.5469 184.551C25.2188 185.113 26.1797 185.395 27.4297 185.395C28.7812 185.395 29.8477 184.867 30.6289 183.812C31.418 182.758 31.8203 181.293 31.8359 179.418H25.1211V177.566H31.8359C31.8359 175.715 31.4297 174.25 30.6172 173.172C29.8125 172.094 28.6836 171.555 27.2305 171.555C26.0586 171.555 25.1445 171.859 24.4883 172.469C23.8398 173.078 23.418 174.062 23.2227 175.422H20.9609C21.1406 173.633 21.7773 172.234 22.8711 171.227C23.9648 170.211 25.418 169.703 27.2305 169.703C28.6055 169.703 29.8125 170.031 30.8516 170.688C31.8984 171.336 32.6992 172.266 33.2539 173.477C33.8164 174.68 34.0977 176.066 34.0977 177.637V179.336C34.0977 180.906 33.8203 182.293 33.2656 183.496C32.7109 184.699 31.9258 185.625 30.9102 186.273C29.9023 186.914 28.7422 187.234 27.4297 187.234C25.5703 187.234 24.0781 186.746 22.9531 185.77C21.8359 184.785 21.1719 183.391 20.9609 181.586H23.2227ZM41 181.598H39.418V187H37.2383V174.32H39.418V179.688H40.8359L45.1016 174.32H47.7266L42.7109 180.414L48.1484 187H45.3945L41 181.598ZM54.9102 185.465C55.6836 185.465 56.3594 185.23 56.9375 184.762C57.5156 184.293 57.8359 183.707 57.8984 183.004H59.9492C59.9102 183.73 59.6602 184.422 59.1992 185.078C58.7383 185.734 58.1211 186.258 57.3477 186.648C56.582 187.039 55.7695 187.234 54.9102 187.234C53.1836 187.234 51.8086 186.66 50.7852 185.512C49.7695 184.355 49.2617 182.777 49.2617 180.777V180.414C49.2617 179.18 49.4883 178.082 49.9414 177.121C50.3945 176.16 51.043 175.414 51.8867 174.883C52.7383 174.352 53.7422 174.086 54.8984 174.086C56.3203 174.086 57.5 174.512 58.4375 175.363C59.3828 176.215 59.8867 177.32 59.9492 178.68H57.8984C57.8359 177.859 57.5234 177.188 56.9609 176.664C56.4062 176.133 55.7188 175.867 54.8984 175.867C53.7969 175.867 52.9414 176.266 52.332 177.062C51.7305 177.852 51.4297 178.996 51.4297 180.496V180.906C51.4297 182.367 51.7305 183.492 52.332 184.281C52.9336 185.07 53.793 185.465 54.9102 185.465ZM72.7578 187H70.5898V176.113H64.7539V187H62.5742V174.32H72.7578V187ZM81.5 187.234C79.7812 187.234 78.3828 186.672 77.3047 185.547C76.2266 184.414 75.6875 182.902 75.6875 181.012V180.613C75.6875 179.355 75.9258 178.234 76.4023 177.25C76.8867 176.258 77.5586 175.484 78.418 174.93C79.2852 174.367 80.2227 174.086 81.2305 174.086C82.8789 174.086 84.1602 174.629 85.0742 175.715C85.9883 176.801 86.4453 178.355 86.4453 180.379V181.281H77.8555C77.8867 182.531 78.25 183.543 78.9453 184.316C79.6484 185.082 80.5391 185.465 81.6172 185.465C82.3828 185.465 83.0312 185.309 83.5625 184.996C84.0938 184.684 84.5586 184.27 84.957 183.754L86.2812 184.785C85.2188 186.418 83.625 187.234 81.5 187.234ZM81.2305 175.867C80.3555 175.867 79.6211 176.188 79.0273 176.828C78.4336 177.461 78.0664 178.352 77.9258 179.5H84.2773V179.336C84.2148 178.234 83.918 177.383 83.3867 176.781C82.8555 176.172 82.1367 175.867 81.2305 175.867ZM99.6758 180.801C99.6758 182.73 99.2344 184.285 98.3516 185.465C97.4688 186.645 96.2734 187.234 94.7656 187.234C93.2266 187.234 92.0156 186.746 91.1328 185.77V191.875H88.9648V174.32H90.9453L91.0508 175.727C91.9336 174.633 93.1602 174.086 94.7305 174.086C96.2539 174.086 97.457 174.66 98.3398 175.809C99.2305 176.957 99.6758 178.555 99.6758 180.602V180.801ZM97.5078 180.555C97.5078 179.125 97.2031 177.996 96.5938 177.168C95.9844 176.34 95.1484 175.926 94.0859 175.926C92.7734 175.926 91.7891 176.508 91.1328 177.672V183.73C91.7812 184.887 92.7734 185.465 94.1094 185.465C95.1484 185.465 95.9727 185.055 96.582 184.234C97.1992 183.406 97.5078 182.18 97.5078 180.555ZM110.926 176.078H106.672V187H104.504V176.078H100.332V174.32H110.926V176.078ZM115.402 178.691H118.695C120.133 178.707 121.27 179.082 122.105 179.816C122.941 180.551 123.359 181.547 123.359 182.805C123.359 184.07 122.93 185.086 122.07 185.852C121.211 186.617 120.055 187 118.602 187H113.234V174.32H115.402V178.691ZM127.883 187H125.703V174.32H127.883V187ZM115.402 180.461V185.23H118.625C119.438 185.23 120.066 185.023 120.512 184.609C120.957 184.188 121.18 183.613 121.18 182.887C121.18 182.184 120.961 181.609 120.523 181.164C120.094 180.711 119.488 180.477 118.707 180.461H115.402ZM137.047 180.543C137.047 179.301 137.289 178.184 137.773 177.191C138.266 176.199 138.945 175.434 139.812 174.895C140.688 174.355 141.684 174.086 142.801 174.086C144.527 174.086 145.922 174.684 146.984 175.879C148.055 177.074 148.59 178.664 148.59 180.648V180.801C148.59 182.035 148.352 183.145 147.875 184.129C147.406 185.105 146.73 185.867 145.848 186.414C144.973 186.961 143.965 187.234 142.824 187.234C141.105 187.234 139.711 186.637 138.641 185.441C137.578 184.246 137.047 182.664 137.047 180.695V180.543ZM139.227 180.801C139.227 182.207 139.551 183.336 140.199 184.188C140.855 185.039 141.73 185.465 142.824 185.465C143.926 185.465 144.801 185.035 145.449 184.176C146.098 183.309 146.422 182.098 146.422 180.543C146.422 179.152 146.09 178.027 145.426 177.168C144.77 176.301 143.895 175.867 142.801 175.867C141.73 175.867 140.867 176.293 140.211 177.145C139.555 177.996 139.227 179.215 139.227 180.801ZM160.473 176.078H156.219V187H154.051V176.078H149.879V174.32H160.473V176.078ZM173.293 180.801C173.293 182.73 172.852 184.285 171.969 185.465C171.086 186.645 169.891 187.234 168.383 187.234C166.844 187.234 165.633 186.746 164.75 185.77V191.875H162.582V174.32H164.562L164.668 175.727C165.551 174.633 166.777 174.086 168.348 174.086C169.871 174.086 171.074 174.66 171.957 175.809C172.848 176.957 173.293 178.555 173.293 180.602V180.801ZM171.125 180.555C171.125 179.125 170.82 177.996 170.211 177.168C169.602 176.34 168.766 175.926 167.703 175.926C166.391 175.926 165.406 176.508 164.75 177.672V183.73C165.398 184.887 166.391 185.465 167.727 185.465C168.766 185.465 169.59 185.055 170.199 184.234C170.816 183.406 171.125 182.18 171.125 180.555ZM183.887 187C183.762 186.75 183.66 186.305 183.582 185.664C182.574 186.711 181.371 187.234 179.973 187.234C178.723 187.234 177.695 186.883 176.891 186.18C176.094 185.469 175.695 184.57 175.695 183.484C175.695 182.164 176.195 181.141 177.195 180.414C178.203 179.68 179.617 179.312 181.438 179.312H183.547V178.316C183.547 177.559 183.32 176.957 182.867 176.512C182.414 176.059 181.746 175.832 180.863 175.832C180.09 175.832 179.441 176.027 178.918 176.418C178.395 176.809 178.133 177.281 178.133 177.836H175.953C175.953 177.203 176.176 176.594 176.621 176.008C177.074 175.414 177.684 174.945 178.449 174.602C179.223 174.258 180.07 174.086 180.992 174.086C182.453 174.086 183.598 174.453 184.426 175.188C185.254 175.914 185.684 176.918 185.715 178.199V184.035C185.715 185.199 185.863 186.125 186.16 186.812V187H183.887ZM180.289 185.348C180.969 185.348 181.613 185.172 182.223 184.82C182.832 184.469 183.273 184.012 183.547 183.449V180.848H181.848C179.191 180.848 177.863 181.625 177.863 183.18C177.863 183.859 178.09 184.391 178.543 184.773C178.996 185.156 179.578 185.348 180.289 185.348ZM194.199 185.465C194.973 185.465 195.648 185.23 196.227 184.762C196.805 184.293 197.125 183.707 197.188 183.004H199.238C199.199 183.73 198.949 184.422 198.488 185.078C198.027 185.734 197.41 186.258 196.637 186.648C195.871 187.039 195.059 187.234 194.199 187.234C192.473 187.234 191.098 186.66 190.074 185.512C189.059 184.355 188.551 182.777 188.551 180.777V180.414C188.551 179.18 188.777 178.082 189.23 177.121C189.684 176.16 190.332 175.414 191.176 174.883C192.027 174.352 193.031 174.086 194.188 174.086C195.609 174.086 196.789 174.512 197.727 175.363C198.672 176.215 199.176 177.32 199.238 178.68H197.188C197.125 177.859 196.812 177.188 196.25 176.664C195.695 176.133 195.008 175.867 194.188 175.867C193.086 175.867 192.23 176.266 191.621 177.062C191.02 177.852 190.719 178.996 190.719 180.496V180.906C190.719 182.367 191.02 183.492 191.621 184.281C192.223 185.07 193.082 185.465 194.199 185.465ZM212.07 174.32V187H209.891V176.113H205.578L205.32 180.859C205.18 183.039 204.812 184.598 204.219 185.535C203.633 186.473 202.699 186.961 201.418 187H200.551V185.09L201.172 185.043C201.875 184.965 202.379 184.559 202.684 183.824C202.988 183.09 203.184 181.73 203.27 179.746L203.504 174.32H212.07ZM223.754 174.32H225.922V187H223.754V177.754L217.906 187H215.738V174.32H217.906V183.578L223.754 174.32Z" fill="white"/>
<defs>
<clipPath id="clip0">
<rect width="48" height="48" fill="white" transform="translate(43 48)"/>
</clipPath>
</defs>
</svg>
