<svg width="72" height="66" viewBox="0 0 72 66" fill="none" xmlns="http://www.w3.org/2000/svg">
<path opacity="0.12" d="M51.7031 12.1573C54.9836 12.1821 58.0281 13.9365 59.6898 16.7596L70.2349 34.6748C71.8966 37.498 71.923 40.9609 70.3043 43.7593L60.0318 61.5175C58.413 64.3159 55.395 66.0245 52.1145 65.9997L31.2969 65.8427C28.0164 65.8179 24.9719 64.0635 23.3102 61.2404L12.7651 43.3252C11.1034 40.502 11.077 37.0391 12.6957 34.2407L22.9682 16.4825C24.587 13.6841 27.605 11.9755 30.8855 12.0003L51.7031 12.1573Z" fill="#70D9FF"/>
<path d="M30.6976 6.14818C33.3599 4.61727 36.6401 4.61727 39.3024 6.14818L56.1976 15.8631C58.8599 17.394 60.5 20.2232 60.5 23.285V42.715C60.5 45.7768 58.8599 48.606 56.1976 50.1369L39.3024 59.8518C36.6401 61.3827 33.3599 61.3827 30.6976 59.8518L13.8024 50.1369C11.1401 48.606 9.5 45.7768 9.5 42.715V23.285C9.5 20.2232 11.1401 17.394 13.8024 15.8631L30.6976 6.14818Z" fill="#70D9FF"/>
<path d="M23.5 33L31.5 41L47.5 25" stroke="black" stroke-width="2"/>
</svg>
