<svg width="188" height="40" viewBox="0 0 188 40" fill="none" xmlns="http://www.w3.org/2000/svg">
<path d="M15.3088 1.06638C17.2154 -0.0198061 19.5644 -0.0198062 21.4709 1.06638L33.5698 7.95919C35.4763 9.04537 36.6508 11.0527 36.6508 13.2251V27.0107C36.6508 29.1831 35.4763 31.1904 33.5698 32.2766L21.4709 39.1694C19.5644 40.2556 17.2154 40.2556 15.3088 39.1694L3.20996 32.2766C1.3034 31.1904 0.128906 29.1831 0.128906 27.0107V13.2251C0.128906 11.0527 1.3034 9.04538 3.20996 7.95919L15.3088 1.06638Z" fill="#48C8FF"/>
<path fill-rule="evenodd" clip-rule="evenodd" d="M23.2955 11.1753C24.8477 10.291 26.7601 10.291 28.3124 11.1753C29.8646 12.0596 30.8208 13.6939 30.8208 15.4625C30.8208 17.2311 29.8646 18.8654 28.3124 19.7497C26.7601 20.634 24.8477 20.634 23.2955 19.7497C21.7433 18.8654 20.7871 17.2311 20.7871 15.4625C20.7871 13.6939 21.7433 12.0596 23.2955 11.1753ZM26.9644 13.4791C26.2463 13.07 25.3616 13.07 24.6435 13.4791C23.9254 13.8882 23.483 14.6443 23.483 15.4625C23.483 16.2807 23.9254 17.0368 24.6435 17.4459C25.3616 17.855 26.2463 17.855 26.9644 17.4459C27.6825 17.0368 28.1248 16.2807 28.1248 15.4625C28.1248 14.6443 27.6825 13.8882 26.9644 13.4791Z" fill="black"/>
<path d="M116.31 13.933C117.906 13.933 120.551 14.4862 123.6 15.9835L123.627 15.9295V11.1844C120.918 10.0924 118.403 9.56931 116.434 9.54804L116.402 9.54773C116.371 9.54748 116.34 9.54736 116.31 9.54736V9.54836C115.28 9.55954 114.297 9.70943 113.361 9.99803C112.408 10.2982 111.566 10.7486 110.836 11.349C110.106 11.9295 109.528 12.65 109.102 13.5107C108.676 14.3713 108.463 15.3621 108.463 16.4829C108.463 17.2835 108.574 17.984 108.797 18.5845C109.041 19.185 109.396 19.7153 109.862 20.1757C110.349 20.636 110.958 21.0464 111.688 21.4066C112.418 21.7469 113.28 22.0671 114.274 22.3674C115.024 22.5875 115.714 22.7877 116.343 22.9678C116.992 23.1479 117.55 23.3481 118.016 23.5683C118.483 23.7684 118.848 23.9986 119.112 24.2588C119.375 24.519 119.507 24.8492 119.507 25.2495C119.507 26.0984 118.281 26.677 116.887 26.8743V26.8731C116.687 26.8924 116.487 26.9004 116.295 26.9004V26.8985C114.699 26.8985 112.054 26.3453 109.005 24.8479L108.977 24.9019V29.647C111.678 30.7356 114.186 31.2589 116.152 31.2832C117.868 31.3411 118.957 31.1402 119.781 30.9538C120.755 30.7137 121.617 30.3434 122.367 29.843C123.118 29.3226 123.716 28.6521 124.162 27.8315C124.629 26.9908 124.862 25.9701 124.862 24.7692C124.862 23.7884 124.7 22.9478 124.375 22.2473C124.071 21.5467 123.625 20.9563 123.036 20.4759C122.469 19.9755 121.769 19.5652 120.937 19.245C120.105 18.9047 119.172 18.5945 118.138 18.3143C117.387 18.1141 116.728 17.934 116.16 17.7739C115.592 17.6138 115.116 17.4436 114.73 17.2635C114.365 17.0633 114.081 16.8432 113.878 16.603C113.696 16.3628 113.605 16.0626 113.605 15.7023C113.605 14.5214 114.497 13.931 116.282 13.931L116.31 13.931V13.933Z" fill="white"/>
<path d="M54.625 14.503C56.4467 14.503 57.7653 14.842 58.6689 15.321V10.0526C57.4126 9.71924 56.0494 9.56258 54.625 9.56258C48.3503 9.56258 43.2637 13.933 43.2637 20.3935C43.2637 26.8541 48.3503 31.2245 54.625 31.2245C56.0494 31.2245 57.4126 31.0678 58.6689 30.7345V25.4661C57.7653 25.945 56.4467 26.284 54.625 26.284C50.8015 26.284 48.2704 23.8258 48.2704 20.3935C48.2704 16.9613 50.8015 14.503 54.625 14.503Z" fill="white"/>
<path d="M81.1327 26.7206V31.0439H65.9504V9.72782H80.8588V14.0511H70.9402V18.1942H79.4593V22.1872H70.9402V26.7206H81.1327Z" fill="white"/>
<path d="M87.8151 31.0439V9.72782H92.8049V26.7206H103.271V31.0439H87.8151Z" fill="white"/>
<path d="M142.881 26.3303C142.293 26.6706 141.573 26.8407 140.721 26.8407C139.869 26.8407 139.149 26.6706 138.561 26.3303C137.993 25.9901 137.526 25.5297 137.161 24.9493C136.796 24.3689 136.532 23.7084 136.37 22.9678C136.208 22.2272 136.127 21.4466 136.127 20.626V9.72782H131.137V20.626C131.137 22.0271 131.309 23.3681 131.654 24.6491C132.019 25.93 132.577 27.0609 133.327 28.0416C134.098 29.0024 135.092 29.7729 136.309 30.3534C137.526 30.9338 138.997 31.224 140.721 31.224C142.384 31.224 143.814 30.9538 145.011 30.4134C146.228 29.853 147.222 29.0924 147.992 28.1317C148.783 27.171 149.362 26.0501 149.727 24.7692C150.112 23.4882 150.305 22.1072 150.305 20.626V9.72782H145.315V20.626C145.315 21.4066 145.234 22.1772 145.072 22.9378C144.93 23.6783 144.676 24.3388 144.311 24.9193C143.946 25.4997 143.469 25.9701 142.881 26.3303Z" fill="white"/>
<path d="M172.342 15.9835C169.293 14.4862 166.648 13.933 165.052 13.933V13.931L165.024 13.931C163.239 13.931 162.347 14.5214 162.347 15.7023C162.347 16.0626 162.438 16.3628 162.62 16.603C162.823 16.8432 163.107 17.0633 163.472 17.2635C163.858 17.4436 164.334 17.6138 164.902 17.7739C165.47 17.934 166.13 18.1141 166.88 18.3143C167.915 18.5945 168.848 18.9047 169.679 19.245C170.511 19.5652 171.211 19.9755 171.779 20.4759C172.367 20.9563 172.813 21.5467 173.117 22.2473C173.442 22.9478 173.604 23.7884 173.604 24.7692C173.604 25.9701 173.371 26.9908 172.904 27.8315C172.458 28.6521 171.86 29.3226 171.109 29.843C170.359 30.3434 169.497 30.7137 168.523 30.9538C167.653 31.1507 166.487 31.3637 164.599 31.2709C164.518 31.2672 164.436 31.2627 164.353 31.2573C164.205 31.2483 164.053 31.2374 163.896 31.2245L163.897 31.2206C162.135 31.051 160.052 30.5386 157.841 29.647V24.9019L157.868 24.8479C160.917 26.3453 163.562 26.8985 165.158 26.8985V26.9004C165.269 26.9004 165.383 26.8978 165.498 26.8918C166.945 26.713 168.249 26.125 168.249 25.2495C168.249 24.8492 168.117 24.519 167.854 24.2588C167.59 23.9986 167.225 23.7684 166.758 23.5683C166.292 23.3481 165.734 23.1479 165.085 22.9678C164.456 22.7877 163.767 22.5875 163.016 22.3674C162.022 22.0671 161.16 21.7469 160.43 21.4066C159.7 21.0464 159.091 20.636 158.604 20.1757C158.138 19.7153 157.783 19.185 157.539 18.5845C157.316 17.984 157.205 17.2835 157.205 16.4829C157.205 15.3621 157.418 14.3713 157.844 13.5107C158.27 12.65 158.848 11.9295 159.578 11.349C160.308 10.7486 161.15 10.2982 162.103 9.99803C163.039 9.70943 164.022 9.55954 165.052 9.54836V9.54736L165.083 9.54741L165.129 9.54764L165.144 9.54773L165.176 9.54769C167.145 9.56896 169.66 10.0924 172.369 11.1844V15.9295L172.342 15.9835Z" fill="white"/>
<path d="M181.964 10.0247V10.7104H180.329V15.4792H179.602V10.7104H177.975V10.0247H181.964Z" fill="white"/>
<path d="M187.865 10.0247V15.4792H187.138V11.2169L185.329 14.1857H185.234L183.425 11.2247V15.4792H182.691V10.0247H183.52L185.282 12.9078L187.035 10.0247H187.865Z" fill="white"/>
</svg>
