<svg width="218" height="231" viewBox="0 0 218 231" fill="none" xmlns="http://www.w3.org/2000/svg">
<path d="M118.693 23.6214C128.639 20.9667 139.255 23.8113 146.542 31.0835L193.582 78.0316C200.868 85.3037 203.718 95.8981 201.058 105.824L183.886 169.91C181.227 179.836 173.462 187.586 163.516 190.24L99.3035 207.379C89.357 210.033 78.741 207.189 71.4545 199.916L24.4142 152.968C17.1278 145.696 14.2782 135.102 16.9378 125.176L34.1096 61.09C36.7692 51.1643 44.5342 43.4141 54.4805 40.7595L118.693 23.6214Z" stroke="#1A3145"/>
<path d="M76.3458 33.383C84.1762 28.8723 93.8238 28.8723 101.654 33.383L151.346 62.0074C159.176 66.5181 164 74.8542 164 83.8756V141.124C164 150.146 159.176 158.482 151.346 162.993L101.654 191.617C93.8238 196.128 84.1762 196.128 76.3458 191.617L26.6543 162.993C18.8238 158.482 14 150.146 14 141.124V83.8756C14 74.8542 18.8238 66.5181 26.6543 62.0074L76.3458 33.383Z" fill="#70D9FF"/>
<path d="M76.3458 33.383C84.1762 28.8723 93.8238 28.8723 101.654 33.383L151.346 62.0074C159.176 66.5181 164 74.8542 164 83.8756V141.124C164 150.146 159.176 158.482 151.346 162.993L101.654 191.617C93.8238 196.128 84.1762 196.128 76.3458 191.617L26.6543 162.993C18.8238 158.482 14 150.146 14 141.124V83.8756C14 74.8542 18.8238 66.5181 26.6543 62.0074L76.3458 33.383Z" fill="#102537"/>
</svg>
