<svg width="136" height="130" viewBox="0 0 136 130" fill="none" xmlns="http://www.w3.org/2000/svg">
<path opacity="0.12" d="M88.2631 0.662982C95.4652 0.717427 102.149 4.57645 105.797 10.7864L128.948 50.1941C132.597 56.404 132.655 64.0214 129.101 70.1769L106.548 109.239C102.994 115.395 96.3684 119.153 89.1664 119.099L43.4628 118.753C36.2607 118.699 29.5767 114.84 25.9285 108.63L2.77754 69.222C-0.870635 63.012 -0.928725 55.3946 2.62515 49.2391L25.1777 10.1769C28.7316 4.02143 35.3575 0.263033 42.5596 0.317478L88.2631 0.662982Z" fill="#70D9FF"/>
<path d="M41.3027 2.13233C46.3142 -0.710775 52.4886 -0.710775 57.5001 2.13233L89.3026 20.1744C94.3141 23.0175 97.4014 28.2717 97.4014 33.9579V70.0421C97.4014 75.7283 94.3142 80.9825 89.3027 83.8256L57.5001 101.868C52.4886 104.711 46.3142 104.711 41.3027 101.868L9.50009 83.8256C4.48858 80.9825 1.40137 75.7283 1.40137 70.0421V33.9579C1.40137 28.2717 4.48858 23.0175 9.50009 20.1744L41.3027 2.13233Z" fill="#63D0FF"/>
<g clip-path="url(#clip0)">
<path d="M35.0599 61.9493H32.5264C30.1394 61.9493 27.8502 61.0011 26.1624 59.3133C24.4746 57.6254 23.5264 55.3362 23.5264 52.9493V43.9493C23.5264 41.5623 24.4746 39.2732 26.1624 37.5853C27.8502 35.8975 30.1394 34.9493 32.5264 34.9493H34.7764L34.9496 28.5998C34.9551 28.3854 35.0217 28.1771 35.1416 27.9993C35.2615 27.8215 35.4297 27.6817 35.6265 27.5964C35.8232 27.511 36.0402 27.4837 36.2519 27.5175C36.4637 27.5514 36.6613 27.6451 36.8216 27.7875L44.9014 34.9493H55.0264C57.4133 34.9493 59.7025 35.8975 61.3903 37.5853C63.0782 39.2732 64.0264 41.5623 64.0264 43.9493" stroke="black" stroke-width="2.1" stroke-linecap="round" stroke-linejoin="round"/>
<path d="M34.7764 59.6992C34.7764 62.0862 35.7246 64.3754 37.4124 66.0632C39.1002 67.751 41.3894 68.6992 43.7764 68.6992H53.9014L62.3254 76.2097C62.4893 76.3562 62.6926 76.4515 62.91 76.4838C63.1275 76.516 63.3497 76.4838 63.5491 76.3912C63.7485 76.2986 63.9163 76.1495 64.032 75.9625C64.1476 75.7755 64.2059 75.5587 64.1996 75.339L64.0264 68.6992H66.2764C68.6633 68.6992 70.9525 67.751 72.6403 66.0632C74.3282 64.3754 75.2764 62.0862 75.2764 59.6992V52.9492C75.2764 50.5623 74.3282 48.2731 72.6403 46.5853C70.9525 44.8974 68.6633 43.9492 66.2764 43.9492H64.0264V52.9492C64.0264 55.3362 63.0782 57.6254 61.3903 59.3132C59.7025 61.001 57.4133 61.9492 55.0264 61.9492" stroke="black" stroke-width="2.1" stroke-linecap="round" stroke-linejoin="round"/>
<path d="M52.7763 50.6993C52.7803 49.9085 52.5758 49.1305 52.1833 48.4439C51.7909 47.7573 51.2245 47.1862 50.541 46.7881C49.8576 46.3901 49.0814 46.1793 48.2905 46.1768C47.4996 46.1743 46.7221 46.3803 46.0362 46.774C45.3503 47.1677 44.7802 47.7352 44.3835 48.4194C43.9868 49.1036 43.7774 49.8802 43.7764 50.6711C43.7754 51.4619 43.9828 52.2391 44.3778 52.9243C44.7728 53.6094 45.3414 54.1784 46.0263 54.5738V57.4493H50.5263V54.5738C51.2085 54.1824 51.7755 53.6182 52.1705 52.9381C52.5655 52.258 52.7744 51.4858 52.7763 50.6993Z" stroke="black" stroke-width="2.1" stroke-linecap="round" stroke-linejoin="round"/>
<path d="M48.2764 59.6992V57.4492" stroke="black" stroke-width="2.1" stroke-linecap="round" stroke-linejoin="round"/>
<path d="M34.7764 59.6992V48.4492C34.7764 46.659 35.4875 44.9421 36.7534 43.6762C38.0193 42.4104 39.7362 41.6992 41.5264 41.6992" stroke="black" stroke-width="2.1" stroke-linecap="round" stroke-linejoin="round"/>
</g>
<defs>
<clipPath id="clip0">
<rect width="54" height="54" fill="white" transform="translate(22.4014 25)"/>
</clipPath>
</defs>
</svg>
