<svg width="136" height="130" viewBox="0 0 136 130" fill="none" xmlns="http://www.w3.org/2000/svg">
<path opacity="0.12" d="M101.048 12.8933C107.99 14.81 113.448 20.2674 115.364 27.21L127.527 71.2668C129.444 78.2094 127.528 85.5823 122.502 90.6082L90.6082 122.502C85.5823 127.528 78.2094 129.444 71.2668 127.527L27.21 115.364C20.2674 113.448 14.81 107.99 12.8933 101.048L0.730659 56.9909C-1.18596 50.0484 0.729464 42.6755 5.7554 37.6495L37.6495 5.7554C42.6755 0.729461 50.0484 -1.18596 56.9909 0.730659L101.048 12.8933Z" fill="#70D9FF"/>
<path d="M40.1674 2.55322C45.1789 -0.289876 51.3533 -0.289877 56.3648 2.55322L88.1674 20.5953C93.1789 23.4384 96.2661 28.6926 96.2661 34.3788V70.463C96.2661 76.1492 93.1789 81.4034 88.1674 84.2465L56.3648 102.289C51.3533 105.132 45.1789 105.132 40.1674 102.289L8.36483 84.2465C3.35333 81.4034 0.266113 76.1492 0.266113 70.463V34.3788C0.266113 28.6926 3.35333 23.4384 8.36483 20.5953L40.1674 2.55322Z" fill="#63D0FF"/>
<path d="M72.8734 29.4629C72.2936 29.4629 72.0432 29.7382 71.8373 29.9305C71.6313 30.1228 71.4729 30.3217 71.3223 30.5217C71.0211 30.9217 70.7418 31.3513 70.6274 31.4967V31.4989C70.2149 32.0258 69.2722 32.4214 68.3938 33.482C67.6097 34.4294 67.3685 35.5302 67.1653 36.4202C66.9621 37.3102 66.7867 37.9957 66.458 38.432C66.3844 38.5296 66.4546 38.4887 66.0878 38.5291C65.721 38.5694 64.9063 38.6472 64.3257 39.3408L64.3237 39.343C63.8104 39.9589 63.6866 40.5464 63.6164 40.7614C63.5989 40.7623 63.6359 40.757 63.6081 40.757C63.1277 40.757 62.6696 40.7045 62.119 40.7769C61.5685 40.8492 60.9133 41.1354 60.4335 41.6769C59.619 42.597 59.5121 43.6886 59.509 44.3901C59.3657 44.0736 59.2324 43.7463 58.9217 43.4835C58.5202 43.1439 57.9916 43.0158 57.5195 43.0158C56.6518 43.0158 56.1214 43.5827 55.8236 43.8651C55.5258 44.1474 55.4605 44.1452 55.534 44.1452C55.3488 44.1452 55.1737 44.1245 54.9736 44.1188C55.1173 43.8167 55.2693 43.5031 55.2693 43.157C55.2697 42.9649 55.2242 42.7758 55.137 42.6077C54.7512 41.8667 54.0384 41.6929 53.6355 41.6283C53.3077 41.5758 53.1733 41.5558 53.1391 41.5622C53.0874 41.5207 53.0094 41.4635 52.9075 41.3636C52.6673 41.1283 52.1964 40.757 51.5632 40.757C50.8799 40.757 50.3235 41.3247 50.1238 41.6636C49.9251 42.0008 49.8247 42.199 49.8673 42.1489H49.8653V42.1511C49.7354 42.3047 49.5907 42.3665 49.1972 42.471C48.8024 42.5758 48.1839 42.6762 47.5655 43.157C47.173 43.4621 46.9674 43.8577 46.8561 44.0857C46.7448 44.3137 46.7029 44.3771 46.7072 44.3724L46.7051 44.3747C46.6571 44.3882 46.4442 44.4153 46.1343 44.5136C45.4836 44.7208 45.2483 45.1769 45.1251 45.3408C45.0696 45.4146 45.0539 45.4289 45.0796 45.407C44.9048 45.4371 44.7586 45.504 44.6018 45.5636C44.612 45.4523 44.6804 45.3918 44.6804 45.2747C44.6804 44.7971 44.5846 44.3073 44.2957 43.8563C44.0072 43.4057 43.4426 43.0294 42.8501 43.0158H42.848C42.4037 43.0067 41.9729 43.209 41.6878 43.4636C41.4022 43.7186 41.2213 44.0083 41.0736 44.2974C40.901 44.6352 40.8194 44.9883 40.7096 45.3386C40.6261 45.114 40.5292 44.8809 40.3187 44.6438C40.089 44.3849 39.6719 44.1452 39.2536 44.1452C38.8197 44.1452 38.3866 44.3407 38.1161 44.5754C37.8951 44.7672 37.7928 44.9368 37.6963 45.0849C37.6747 45.0622 37.6776 45.0672 37.6528 45.0408C37.3569 44.7252 36.6946 44.1452 35.8122 44.1452C32.5967 44.1452 31.4115 43.345 31.1857 43.1107C31.1795 43.0817 31.0831 42.9116 31.0306 42.7114C30.9607 42.4444 30.9148 42.1064 30.9148 41.871C30.9148 41.6801 31.002 41.3559 31.0679 41.057C31.1704 41.2657 31.3202 41.5058 31.558 41.6592C31.8281 41.8333 32.1217 41.8864 32.3708 41.8864C32.7679 41.8864 33.193 41.6801 33.4462 41.4099C33.6995 41.1398 33.8222 40.8509 33.9054 40.5849C34.0716 40.053 34.0915 39.5492 34.0915 39.0629C34.0915 38.8511 34.1143 38.3151 33.9219 37.6997C33.8257 37.3919 33.6662 37.0378 33.3532 36.7357C33.0401 36.4336 32.5646 36.2394 32.1061 36.2394C32.0791 36.2394 31.682 36.1973 31.2457 36.3386C30.8095 36.4799 30.3631 36.7837 29.9014 37.2761C29.0234 38.2126 28.839 38.7087 27.6782 40.221C27.3513 40.6468 27.2452 40.7013 27.2108 40.7151C27.1763 40.7289 26.9878 40.7517 26.4828 40.746C26.4738 40.7459 26.4649 40.7459 26.4559 40.746C26.0272 40.7528 25.6201 40.8005 25.2398 41.0349C24.8595 41.2694 24.6973 41.5342 24.5511 41.7166C24.5497 41.7188 24.5484 41.721 24.547 41.7232C24.4623 41.83 24.4674 41.8445 24.4457 41.8864H23.637C22.5951 41.8864 21.7721 42.5651 21.3145 43.2408C20.8568 43.9165 20.6157 44.6285 20.4252 45.1026V45.1048C20.3574 45.274 20.3531 45.283 20.2887 45.4313C20.1446 45.3846 20.051 45.2701 19.8999 45.2747C19.6123 45.2833 19.2058 45.3308 18.812 45.6651C18.4182 45.9994 18.2081 46.5972 18.2081 47.1099C18.2081 47.7514 18.4718 48.2619 18.6073 48.5041C18.6442 48.5701 18.6411 48.5627 18.6528 48.5857C18.6376 48.6014 18.5867 48.7874 18.477 49.1636C18.3488 49.6029 18.2081 50.2027 18.2081 50.9217C18.2081 52.1876 18.2004 52.3128 18.2081 52.7769V52.7791C18.2116 52.9784 18.1835 53.1017 18.1626 53.2114C17.7438 53.231 17.3041 53.2683 16.99 53.3195C16.0931 53.4656 16.0896 53.7519 15.4285 53.7519C15.2981 53.7519 15.1152 53.7563 14.8846 53.8489C14.6541 53.9415 14.3994 54.1534 14.2538 54.3871C13.9679 54.8465 13.9806 55.211 13.9829 55.6092C13.9593 56.3511 14.0797 56.9516 14.2993 57.6033C14.5794 58.4364 14.9837 58.8502 15.0873 59.0967L15.0894 59.0989C15.3065 59.6112 15.4668 60.4791 15.7346 61.3401C15.7048 61.245 15.7477 61.4413 15.7656 61.671C15.7837 61.9022 15.8009 62.1991 15.8401 62.5136C15.8793 62.8281 15.9245 63.1567 16.0986 63.5416C16.2727 63.9263 16.7911 64.4746 17.414 64.4746C18.2407 64.4746 18.8069 63.8094 19.0499 63.3452C19.2929 62.8811 19.4037 62.4407 19.4469 62.3239C19.4747 62.2485 19.4746 62.2452 19.48 62.2291C19.4603 62.2422 19.5266 62.2158 19.7965 62.2158H20.9877C21.6061 62.2158 22.0334 61.7496 22.2203 61.4261C22.4073 61.1026 22.4903 60.8077 22.5595 60.5151C22.698 59.9299 22.7427 59.3617 22.7622 59.0349C22.7736 58.8427 22.7974 58.6923 22.8077 58.5033C22.8144 58.5095 22.8131 58.5148 22.8201 58.521C23.0162 58.6938 23.3355 58.8276 23.6205 58.8276H24.547C25.0742 58.8276 25.1283 58.884 25.1095 58.8695C25.0908 58.855 25.2299 59.0261 25.5025 59.5577C25.8557 60.2459 26.3117 60.6864 26.6441 60.9916C26.9765 61.2967 27.178 61.4731 27.3783 61.8099L27.3804 61.8121C27.4921 61.9993 27.6447 62.3259 27.9636 62.6724C28.2824 63.019 28.8518 63.3452 29.4588 63.3452C29.9258 63.3452 30.4662 62.9798 30.677 62.5864C30.7489 62.4521 30.7221 62.3398 30.7576 62.2136C30.9812 62.1749 31.2369 62.1673 31.6325 61.8871L31.6345 61.8849C31.9779 61.6411 31.9827 61.4214 32.0875 61.168C32.5284 61.2198 32.8722 61.2912 33.3428 61.4416C34.2364 61.727 34.7839 61.6817 35.1587 61.7901V61.7923C35.2599 62.656 35.6618 63.2846 36.0025 63.6673C36.1728 63.8586 36.3292 63.9929 36.4575 64.0886C36.5216 64.1365 36.5501 64.1613 36.6725 64.2254C36.6891 64.2341 36.7387 64.2521 36.7677 64.2651C36.8444 64.3145 36.8489 64.3404 36.96 64.3798C37.2223 64.4727 37.4215 64.4746 37.6653 64.4746H38.2361C38.2367 64.4839 38.2375 64.4851 38.2381 64.4945C38.2542 64.7512 38.2634 65.0439 38.2754 65.3195C38.2873 65.5951 38.2841 65.8122 38.3519 66.1335C38.408 66.4013 38.4259 66.6733 38.6476 67.0798C38.8694 67.4863 39.5065 67.8585 39.9526 67.8585C39.8385 67.8585 39.9787 67.8599 40.0705 67.8607C40.0978 67.8905 40.1043 67.8935 40.1429 67.9423C40.306 68.1482 40.4548 68.4584 40.8874 68.8114L40.8895 68.8136C41.0811 68.9692 41.2338 69.1986 41.4955 69.5724C41.7571 69.9463 42.1491 70.4546 42.7736 70.8121C43.2778 71.1007 43.7392 71.2488 44.2792 71.2511C44.8282 71.2535 45.292 71.0308 45.6049 70.843C45.9182 70.655 46.1334 70.4999 46.3949 70.3798C46.7579 70.2128 47.0097 70.158 47.125 70.1394C47.1245 70.1654 47.3094 70.2309 47.5034 70.4085C47.6383 70.5319 47.7798 70.6729 47.9481 70.8188C48.1163 70.9646 48.2013 71.2511 48.916 71.2511C49.0925 71.2511 49.3557 71.3178 49.8177 71.2357C50.0487 71.1946 50.3844 71.0844 50.6574 70.7724C50.9304 70.4605 51.0338 70.0276 51.0338 69.6982C51.0338 69.4145 51.0341 69.2508 51.0338 69.0761C51.1225 69.1427 51.197 69.2077 51.3853 69.3099L51.3874 69.3121C51.6796 69.4696 52.578 70.1217 54.3428 70.1217H54.349C54.5906 70.12 54.9808 70.2848 55.5651 70.5761C56.1493 70.8674 56.9301 71.2511 57.9166 71.2511C58.5342 71.2511 59.0879 70.9404 59.4387 70.6004C59.7895 70.2604 60.0057 69.9035 60.1894 69.6188C60.3732 69.334 60.5263 69.1206 60.6114 69.0386C60.6964 68.9566 60.6378 68.9914 60.6693 68.9923C61.2847 69.0091 61.9477 69.0214 62.6278 68.6107C63.3079 68.2 63.7405 67.2634 63.7405 66.3099C63.7533 65.3676 63.7241 64.9425 63.7942 64.7592C63.8397 64.6401 63.9314 64.5581 64.1872 64.5055C64.4422 64.4531 64.7884 64.5384 64.8635 64.5849C65.2567 64.8342 65.7473 65.2981 66.2864 65.7496C66.8254 66.2012 67.4395 66.7335 68.3731 66.7335C69.3198 66.7335 70.2752 66.5548 71.0617 65.8754C71.1019 66.0834 71.1527 66.2606 71.1527 66.5923C71.1527 66.9976 71.124 66.9406 70.8859 67.2452C70.6478 67.5499 70.1272 68.3377 70.2344 69.2702C70.2637 69.5296 70.2915 69.5522 70.3234 69.6519C70.3554 69.7521 70.3942 69.8591 70.4392 69.9783C70.5292 70.2168 70.6449 70.4977 70.7804 70.7835C70.9159 71.0692 71.064 71.3542 71.254 71.6261C71.3491 71.7621 71.4507 71.8963 71.6118 72.0386C71.7729 72.1809 72.018 72.3805 72.4536 72.3805C72.8744 72.3805 73.0018 72.2532 73.1381 72.171C73.2744 72.0887 73.3828 72.004 73.4938 71.9129C73.716 71.7305 73.936 71.5203 74.1536 71.2996C74.5888 70.8584 74.9349 70.4921 75.1939 70.1129C75.7332 69.3221 76.4206 68.2538 76.4472 66.8989C76.4472 66.8908 76.4472 66.8827 76.4472 66.8746C76.4472 64.2932 75.8596 61.9976 75.0387 59.9394V59.9371C74.8507 59.4661 74.5209 58.4596 73.924 57.6254C73.6256 57.2083 73.2258 56.7449 72.5342 56.6151C71.8426 56.4853 71.1185 56.9021 70.6729 57.4732C70.5429 57.6384 70.4136 57.6982 70.3585 57.6982C70.3071 57.6982 70.3196 57.6939 70.2799 57.6916C70.2372 57.5728 70.0938 57.1928 70.0938 55.8629C70.0938 55.1677 70.2012 54.2855 70.2427 54.0364V54.0342C70.403 53.0635 70.6808 52.195 71.1548 51.5548C71.3271 51.3224 71.4727 51.2245 71.7669 50.9857C72.0611 50.7468 72.4819 50.3377 72.7638 49.7283C73.3877 48.3813 73.2795 47.1028 73.2705 46.1107C73.2688 45.9397 73.254 45.9245 73.2457 45.921C73.2532 45.9306 73.269 45.934 73.2953 45.9166C73.3478 45.8816 73.4752 45.8351 73.7131 45.6563C73.7601 45.6209 73.7811 45.4734 73.8351 45.4136C74.2949 46.2114 74.7962 46.9031 75.1132 47.5158C75.3135 47.9036 75.4955 48.5929 75.7502 49.3555C76.0044 50.1168 76.3576 51.0062 77.1441 51.6541C77.7104 52.1233 78.3847 52.4538 79.0137 52.7151C79.3283 52.8458 79.6286 52.9531 79.8948 53.0327C80.161 53.1125 80.3317 53.1805 80.6827 53.1805C80.9636 53.1805 81.2329 53.0615 81.4314 52.8497C81.63 52.6379 81.7416 52.3506 81.7416 52.0511C81.7416 51.3434 81.361 50.7542 81.0819 50.4563C80.8027 50.1583 80.6308 50.0022 80.6248 49.993C80.4122 49.668 80.2691 49.2437 80.0561 48.7555L80.054 48.7511C79.8706 48.3259 79.7781 47.98 79.4977 47.4232C78.98 46.3945 78.1515 45.5848 77.1462 45.1908L77.1441 45.1886C76.9227 45.1026 76.8097 44.9875 76.6726 44.6327C76.5354 44.278 76.4472 43.7017 76.4472 43.0158V41.9107C76.614 41.8229 76.8273 41.7152 77.0511 41.4541C77.3048 41.1579 77.4922 40.6858 77.5061 40.2298C77.5354 39.2688 77.11 38.7443 76.8442 38.2533C76.5785 37.7624 76.4472 37.3286 76.4472 37.3688C76.4472 36.6629 76.3273 35.9606 75.7854 35.4982C75.2434 35.0358 74.7265 35.1099 74.4617 35.1099C74.4132 35.1099 74.4059 35.108 74.3852 35.0813C74.3645 35.0545 74.2803 34.9415 74.3232 34.5298C74.3274 34.488 74.3295 34.4461 74.3294 34.4041C74.3294 34.4825 74.3715 34.3174 74.6458 33.9298C74.9201 33.5422 75.3883 32.9151 75.3883 31.9908C75.3883 31.5585 75.2881 31.4924 75.2435 31.4063C75.1989 31.3202 75.1633 31.2673 75.1297 31.2188C75.0626 31.1216 74.999 31.044 74.9271 30.9585C74.7832 30.7874 74.6117 30.6015 74.4266 30.4158C74.2415 30.2302 74.049 30.05 73.8516 29.8908C73.7529 29.8113 73.6538 29.7361 73.529 29.6614C73.4042 29.5868 73.2993 29.4629 72.8734 29.4629ZM66.367 31.7239C65.7291 31.7673 65.7549 33.4173 66.094 33.943C66.7961 34.2988 67.2013 32.1025 66.6814 31.8099C66.5621 31.7426 66.4581 31.7177 66.367 31.7239ZM72.921 32.0107C72.9409 32.0302 72.955 32.0416 72.9747 32.0614C73.0373 32.1241 73.0789 32.1744 73.1361 32.2357C73.0926 32.3288 73.101 32.3611 72.9541 32.5688C72.7069 32.9181 72.2631 33.4726 72.2343 34.3467C72.1636 35.1759 72.3223 35.9594 72.7514 36.5151C73.1648 37.0505 73.7688 37.2916 74.3459 37.3247C74.3388 37.3295 74.3294 37.3179 74.3294 37.3688C74.3294 38.3023 74.74 38.8843 75.0098 39.3827C75.2295 39.7886 75.282 39.978 75.318 40.0114C75.2187 40.0567 75.1207 40.0907 74.9291 40.2386C74.7501 40.3769 74.6264 40.757 74.5093 41.0967C74.3203 40.9532 74.188 40.7639 73.9178 40.7658C73.3903 40.7737 72.6998 41.178 72.4556 41.6989C72.209 42.225 72.2116 42.6707 72.2116 43.157C72.2114 43.1702 72.2114 43.1835 72.2116 43.1967C72.2192 43.4288 72.2143 43.7095 72.2116 43.9776C72.1896 43.9919 72.2005 43.9837 72.1764 43.9997C71.7486 44.2841 71.1428 45.1242 71.1527 46.1327C71.1627 47.2278 71.207 47.989 70.8652 48.7269C70.749 48.9781 70.6993 49.0137 70.4847 49.1879C70.2701 49.3621 69.8703 49.6467 69.494 50.1541H69.492C68.7017 51.2215 68.3514 52.4709 68.158 53.6416C68.0874 54.066 67.976 54.9507 67.976 55.8629C67.976 57.4865 68.0574 58.4127 68.5634 59.1894L68.5654 59.1938C68.7883 59.5333 69.1415 59.7474 69.4465 59.8423C69.7514 59.9372 70.0373 59.957 70.3585 59.957C71.1906 59.957 71.8183 59.4843 72.2343 58.9798C72.2467 58.9949 72.2271 58.9765 72.2405 58.9952C72.5218 59.3884 72.8656 60.2604 73.0906 60.8239C73.8299 62.6783 74.3242 64.6455 74.3273 66.8548C74.3181 67.2318 73.9132 68.1497 73.4814 68.7827C73.5021 68.7525 73.0637 69.2874 72.6955 69.6607C72.6771 69.6794 72.6643 69.6886 72.6459 69.707C72.5537 69.5079 72.4633 69.2961 72.4019 69.1335C72.3766 69.0666 72.3612 69.0217 72.346 68.9769C72.3216 68.8357 72.272 68.9991 72.5135 68.6901C72.7712 68.3603 73.2705 67.5987 73.2705 66.5923C73.2705 65.9135 73.2128 65.2707 72.9768 64.6577C72.741 64.0453 72.1322 63.3543 71.3409 63.3099H71.3388C70.4946 63.2629 70.1509 63.7731 69.8394 64.1394C69.8252 64.1561 69.1488 64.4746 68.3731 64.4746C68.3802 64.4746 68.0412 64.349 67.5934 63.9739C67.1456 63.5988 66.6139 63.0677 65.9451 62.6438V62.6416C65.2838 62.2239 64.5416 62.1337 63.788 62.2886C63.0344 62.4436 62.1979 62.9539 61.8336 63.9077C61.4915 64.8021 61.6341 65.5003 61.6227 66.2923C61.6226 66.2982 61.6226 66.3041 61.6227 66.3099C61.6227 66.7683 61.6193 66.6248 61.5854 66.6452C61.5516 66.6657 61.2226 66.7471 60.723 66.7335C60.1059 66.7168 59.5415 67.0239 59.1905 67.3621C58.8396 67.7004 58.6275 68.055 58.4439 68.3394C58.2604 68.6237 58.1056 68.8393 58.0138 68.9283C57.922 69.0173 57.9607 68.9923 57.9166 68.9923C57.4471 68.9923 57.013 68.8067 56.4606 68.5313C55.9082 68.2559 55.2396 67.8566 54.3366 67.8629C52.937 67.8619 53.0334 67.6676 52.345 67.296H52.3429C52.311 67.2784 52.209 67.199 52.0161 67.0688C51.8224 66.9379 51.4927 66.7368 51.042 66.7335C50.7193 66.7311 50.2991 66.7469 49.828 67.0246C49.357 67.3024 48.9281 67.9979 48.916 68.6879V68.6901C48.9156 68.7109 48.9163 68.706 48.916 68.7254C48.9019 68.7124 48.8974 68.7078 48.8829 68.6945C48.5319 68.3732 48.084 67.8437 47.1746 67.8629H47.1725C46.6757 67.8736 46.1742 68.0227 45.5573 68.3063V68.3041C45.0935 68.5171 44.7653 68.754 44.5667 68.8732C44.3681 68.9924 44.3505 68.9926 44.2895 68.9923H44.2875C44.3065 68.9924 43.9374 68.9156 43.7746 68.8224C43.535 68.6853 43.4104 68.5302 43.1934 68.2202C42.9769 67.9109 42.6897 67.4378 42.1738 67.018L42.1717 67.0158C42.2454 67.0752 42.0073 66.7962 41.7602 66.4842C41.6361 66.3275 41.4935 66.155 41.2824 65.9813C41.0973 65.8288 40.79 65.6887 40.4221 65.6504C40.42 65.6407 40.4222 65.6494 40.42 65.6394C40.4322 65.6969 40.4019 65.464 40.3911 65.2136C40.3802 64.9633 40.3714 64.6549 40.3518 64.3423C40.3322 64.0297 40.3101 63.725 40.2298 63.3894C40.1896 63.2215 40.1445 63.0414 39.9961 62.8048C39.8478 62.5682 39.4581 62.2158 38.9889 62.2158H37.6653C37.6229 62.2158 37.6756 62.2241 37.6549 62.2224C37.6343 62.2059 37.5923 62.172 37.5391 62.1121C37.421 61.9794 37.3016 61.7842 37.2661 61.5298C37.2682 61.3151 37.2676 61.0506 37.1234 60.6916C36.9539 60.2694 36.5614 59.9268 36.2134 59.7629C35.1809 59.2779 34.3563 59.4078 33.9488 59.2776C33.5151 59.139 32.8041 58.8276 31.709 58.8276C31.3217 58.8276 30.8378 59.1183 30.6439 59.3989C30.45 59.6796 30.4152 59.8732 30.3792 59.9923C30.3704 60.0213 30.3749 60.0067 30.3688 60.0254C30.3463 60.0235 30.2962 60.0427 30.0731 60.0938C29.9264 60.1274 29.7499 60.154 29.4837 60.3055C29.3904 60.3586 29.3503 60.5959 29.2438 60.7224C29.2108 60.6679 29.2069 60.6675 29.1672 60.6011L29.1652 60.5989C28.7825 59.9563 28.3333 59.5623 28.0256 59.2798C27.7174 58.9968 27.5433 58.8324 27.3597 58.4746C27.0827 57.9345 26.8759 57.4464 26.3504 57.0408C25.825 56.6353 25.211 56.5688 24.547 56.5688H24.1954C24.1529 56.4313 24.1323 56.3122 24.0072 56.1144C23.8159 55.8118 23.3261 55.4394 22.8408 55.4394C22.2967 55.4394 21.7451 55.6955 21.4055 56.0702C21.0659 56.4449 20.9098 56.8673 20.8161 57.2416C20.6285 57.9901 20.6595 58.7081 20.6485 58.8916C20.6342 59.1319 20.5844 59.6226 20.5058 59.957H19.7965C19.4328 59.957 19.0097 59.9488 18.5266 60.1974C18.1994 60.3659 18.0197 60.7411 17.8152 61.0776C17.7993 60.9367 17.8046 60.8199 17.7449 60.6276C17.5489 59.9977 17.4011 59.0719 17.0189 58.1702C16.7016 57.4169 16.3623 57.0524 16.2909 56.8401C16.1232 56.3423 16.1206 56.2013 16.1255 55.8408C16.6267 55.7064 17.3144 55.5509 17.3085 55.5519C17.6395 55.4979 18.2495 55.4344 18.448 55.4394C18.4563 55.4395 18.4646 55.4395 18.4728 55.4394C19.2205 55.4394 19.8816 54.7903 20.0984 54.2394C20.3149 53.6892 20.3337 53.1855 20.3259 52.7371V52.7349C20.3188 52.3058 20.3259 52.1954 20.3259 50.9217C20.3259 50.5114 20.402 50.1691 20.4996 49.8342C20.5971 49.4999 20.7483 49.2279 20.7912 48.6739C20.818 48.3296 20.6903 48.2221 20.603 47.9967C20.7956 47.9891 21.0039 48.0064 21.1366 47.9372C21.3454 47.8282 21.4679 47.7058 21.573 47.5886L21.5771 47.5842C22.1541 46.9348 22.2589 46.2753 22.3713 45.9938V45.9916C22.5872 45.4543 22.8028 44.9013 23.031 44.5644C23.2596 44.227 23.3553 44.1452 23.637 44.1452H25.093C25.3195 44.145 25.5399 44.0673 25.7219 43.9236C25.9039 43.7798 26.0379 43.5777 26.1043 43.3467C26.1145 43.3231 26.1246 43.2992 26.1415 43.2629C26.1656 43.2112 26.1938 43.1563 26.2119 43.1217C26.2493 43.0773 26.285 43.0368 26.3028 43.0158C26.334 43.0124 26.3782 43.006 26.4704 43.0026C26.963 43.0086 27.4139 43.0459 27.9532 42.8305C28.2998 42.6921 28.5511 42.3609 28.8239 42.0783C28.8412 42.5006 28.8876 42.9238 28.9914 43.3202C29.1126 43.7829 29.2286 44.1995 29.614 44.6372C30.4806 45.6209 32.2144 46.4041 35.8122 46.4041C35.9887 46.4041 35.922 46.3888 36.1555 46.6379C36.2723 46.7624 36.428 46.9515 36.6912 47.1497C36.9543 47.3478 37.3638 47.5335 37.7976 47.5335C38.2454 47.5335 38.6823 47.2876 38.9186 47.0504C38.9241 47.0449 38.9234 47.0427 38.9289 47.0372C38.9347 47.0767 38.9421 47.0895 38.9475 47.1298C39.0018 47.5311 39.0433 47.9576 39.1274 48.3717C39.1695 48.5788 39.2101 48.7814 39.3405 49.0445C39.4056 49.176 39.4955 49.3336 39.6734 49.4923C39.8513 49.651 40.1511 49.7923 40.4448 49.7923C40.9668 49.7923 41.3756 49.4496 41.5823 49.1747C41.5925 49.1611 41.5933 49.1485 41.603 49.1349C41.6875 49.3308 41.8227 49.4967 41.9928 49.6132C42.1628 49.7297 42.3605 49.7918 42.5626 49.7923C43.2318 49.7923 43.6523 49.3595 43.9028 49.0577C44.1533 48.756 44.3273 48.4704 44.5046 48.2283C44.8592 47.7442 45.0486 47.5335 45.4746 47.5335C45.8567 47.5335 46.1993 47.3473 46.397 47.1783C46.5947 47.0094 46.6994 46.8587 46.7775 46.7548C46.8362 46.6767 46.8564 46.6614 46.8747 46.6445C46.9671 46.6251 47.0459 46.6153 47.247 46.5585C47.522 46.4808 47.9124 46.2802 48.2025 45.9717L48.2045 45.9695C48.5223 45.6306 48.6539 45.293 48.734 45.1291C48.814 44.9651 48.8186 44.9766 48.8126 44.9813C48.9597 44.8669 49.233 44.7903 49.7101 44.6636C50.1873 44.5369 50.8926 44.3127 51.4433 43.6577L51.4453 43.6555C51.632 43.4325 51.639 43.3589 51.708 43.2166C51.7934 43.339 51.8082 43.4576 52.2188 43.6379C52.3559 43.698 52.3828 43.6655 52.4959 43.6952C52.2981 43.9875 52.0927 44.3319 52.0927 44.6945C52.0927 45.3533 52.585 45.8554 52.9178 46.0335C53.2507 46.2116 53.5432 46.2673 53.8423 46.3136C54.4405 46.4062 55.0655 46.4041 55.534 46.4041C56.4018 46.4041 56.9321 45.8372 57.2299 45.5548C57.5277 45.2724 57.593 45.2747 57.5195 45.2747C57.5899 45.2747 57.6001 45.2762 57.6146 45.2769C57.5935 45.259 57.6348 45.2867 57.7263 45.5217H57.7242C57.6479 45.3255 57.7077 45.4837 57.7387 45.6342C57.7697 45.7847 57.8151 45.9925 57.9 46.232C57.985 46.4715 58.1063 46.7555 58.3653 47.0305C58.6244 47.3056 59.0684 47.5335 59.5049 47.5335C59.9634 47.5335 60.4309 47.3435 60.7499 47.0526C61.0689 46.7617 61.2504 46.4144 61.3683 46.093C61.6041 45.4504 61.6227 44.8558 61.6227 44.4276C61.6227 43.7157 61.511 43.7509 61.9743 43.2276C62.1332 43.0485 62.1516 43.0499 62.3776 43.0202C62.6045 42.9904 63.0296 43.0158 63.6081 43.0158C64.032 43.0158 64.4615 42.9318 64.8283 42.6717C65.1951 42.4116 65.3991 42.0295 65.5046 41.7673C65.7151 41.2439 65.7258 41.0643 65.9079 40.8452C65.9427 40.8034 65.9011 40.8191 66.305 40.7747C66.7109 40.73 67.5561 40.5807 68.1084 39.8482C68.828 38.8931 69.025 37.8217 69.2231 36.9541C69.4212 36.0864 69.61 35.4273 69.9821 34.9776C70.4188 34.4512 71.3896 34.0468 72.2509 32.9482C72.492 32.6416 72.7124 32.2961 72.921 32.0107ZM41.8346 33.9827C41.4386 34.0243 41.4542 34.5261 41.5885 34.8938C41.7844 35.4291 42.6699 36.0741 43.1686 36.2085C43.6218 36.3305 44.6666 36.1051 44.6804 35.432C44.6995 34.498 43.3961 34.851 42.9121 34.6533C42.6157 34.5325 42.3244 34.0536 42.0311 33.996C41.9569 33.9814 41.8912 33.9768 41.8346 33.9827ZM49.0152 35.1122C48.3939 35.2068 47.858 36.1244 47.8571 36.5592C47.8539 37.3984 48.454 37.4831 49.1931 37.2629C50.126 36.9862 50.1019 36.7386 49.7556 36.0474C49.5513 35.642 49.8304 35.2688 49.2862 35.1254C49.1952 35.1015 49.104 35.0986 49.0152 35.1122ZM62.9918 37.3776C61.8007 37.4687 59.5943 38.287 59.507 39.0629C59.489 39.23 59.5682 39.3967 59.7779 39.5526C60.0394 39.7469 60.9733 39.5301 61.5007 39.3122C62.0015 39.1055 61.9791 38.7345 62.392 38.4408C62.6758 38.2387 63.8752 37.9786 63.7281 37.5585C63.6725 37.3987 63.3888 37.3472 62.9918 37.3776ZM50.3823 38.5026C49.7603 38.4276 48.8031 39.4847 48.9263 40.1923C48.9613 40.3911 49.0821 40.5625 49.3193 40.6732C50.0817 41.0289 51.1037 40.1923 51.0296 39.3452C51.0063 39.0889 50.8848 38.8332 50.6243 38.6085C50.5532 38.5472 50.4712 38.5133 50.3823 38.5026ZM41.1873 38.5092C40.2259 38.5795 39.3419 39.0164 38.416 39.8416C37.8156 40.3769 37.0079 41.1618 37.3488 42.2438C37.5617 42.9225 38.4615 43.5171 38.5049 42.3651C38.6701 40.6834 40.3664 40.1019 41.4624 39.9607C42.0077 39.8907 42.7433 40.1532 43.243 39.7974C43.9536 39.2903 43.5415 38.9433 43.028 38.7739C42.3692 38.5562 41.7642 38.4671 41.1873 38.5092ZM16.5474 39.6276C15.4718 39.6325 16.5404 41.3673 17.2733 41.7408C18.7568 42.4941 18.2919 40.1072 17.1451 39.7401C16.8966 39.6612 16.7011 39.6269 16.5474 39.6276ZM25.9657 42.3805L25.9719 42.3872L25.974 42.396C25.9713 42.3908 25.9685 42.3857 25.9657 42.3805ZM18.4728 53.1805H18.4977C18.4875 53.1803 18.4789 53.1828 18.4687 53.1827L18.4728 53.1805ZM80.0209 54.3276C79.897 54.3287 79.6238 54.3099 79.6238 54.7335C79.6238 55.1367 80.2999 55.7162 80.3973 56.1408C80.5159 56.6592 80.3639 57.1863 80.4656 57.707C80.5471 58.1271 80.7632 58.5222 80.8585 58.9423C80.9517 59.3557 81.1121 60.5798 81.6754 59.5599C81.9317 59.098 81.4201 58.0314 81.0653 57.6982C81.4762 56.5688 81.0798 54.3106 80.0209 54.3276ZM15.6374 55.9599C15.6354 55.9608 15.6332 55.9636 15.6312 55.9644C15.4985 56.0177 15.4285 56.0107 15.4285 56.0107C15.5609 56.0107 15.5175 55.97 15.6374 55.9599ZM75.5847 57.6982C75.4504 57.69 75.3426 57.7759 75.2787 57.996C75.1346 58.494 75.7782 59.3868 75.9963 59.7607C76.639 60.8641 77.3557 61.8903 77.9011 63.0717C78.0525 63.4004 78.1837 64.1566 78.4801 64.3599C79.0159 64.7304 78.9889 64.1073 79.2557 63.7357C79.2991 63.6758 79.6238 64.0492 79.6259 63.5195C79.627 63.2417 79.1858 63.0302 79.0344 62.9195C78.7708 62.7275 77.728 62.293 78.0541 61.6842C78.2564 61.3059 78.8728 61.9149 78.7986 61.2011C78.7478 60.7222 77.8373 60.1514 77.5598 59.8555C77.2596 59.5353 76.1669 57.7334 75.5847 57.6982ZM81.208 61.0864C81.0047 61.1338 80.5257 64.4027 80.6951 64.4592C81.5084 64.7269 82.2987 61.3563 81.208 61.0864ZM36.4182 64.0335C36.4395 64.0535 36.4616 64.0727 36.4843 64.0908C36.4726 64.0813 36.4635 64.0789 36.4368 64.0533C36.4329 64.0496 36.4226 64.0378 36.4182 64.0335Z" fill="black"/>
</svg>
