<svg width="32" height="32" viewBox="0 0 32 32" fill="none" xmlns="http://www.w3.org/2000/svg">
<path d="M26.6668 5.3335H8.00016C6.5295 5.3335 5.3335 6.5295 5.3335 8.00016V14.6668H8.00016V10.6668L16.5335 17.0668C16.7644 17.2397 17.0451 17.3332 17.3335 17.3332C17.6219 17.3332 17.9026 17.2397 18.1335 17.0668L26.6668 10.6668V22.6668H16.0002V25.3335H26.6668C28.1375 25.3335 29.3335 24.1375 29.3335 22.6668V8.00016C29.3335 6.5295 28.1375 5.3335 26.6668 5.3335ZM17.3335 14.3335L8.88816 8.00016H25.7788L17.3335 14.3335Z" fill="white"/>
<path d="M2.6665 16H11.9998V18.6667H2.6665V16ZM5.33317 20H13.3332V22.6667H5.33317V20ZM9.33317 24H14.6665V26.6667H9.33317V24Z" fill="white"/>
</svg>
